<?xml version="1.0" encoding="UTF-8"?>
<svg width="85px" height="45px" viewBox="0 0 85 45" version="1.1" xmlns="http://www.w3.org/2000/svg" xmlns:xlink="http://www.w3.org/1999/xlink">
    <!-- Generator: Sketch 51.1 (57501) - http://www.bohemiancoding.com/sketch -->
    <title>socialbeer dark</title>
    <desc>Created with Sketch.</desc>
    <defs></defs>
    <g id="Page-1" stroke="none" stroke-width="1" fill="none" fill-rule="evenodd">
        <g id="O-Book" transform="translate(-961.000000, -754.000000)" fill="#1E3264">
            <g id="Published-on" transform="translate(809.000000, 710.000000)">
                <g id="Company-Social-Proof" transform="translate(0.000000, 44.000000)">
                    <g id="socialbeer-dark" transform="translate(152.000000, 0.000000)">
                        <g id="Page-1">
                            <path d="M27.7989231,13.4877981 C27.7989231,15.1917404 27.4622885,16.5400096 26.7872885,17.6252019 C26.3199808,18.3555865 25.8708462,18.7493365 24.9898846,19.1984712 C25.8518077,18.9172212 26.3199808,18.5805865 26.9560385,17.8320288 C27.9858462,16.5962596 28.5102692,15.0982788 28.5102692,13.3380865 C28.5102692,11.3719327 27.8551731,9.57539423 26.6566154,8.30154808 C26.1512308,7.75895192 25.6830577,7.44049038 24.7847885,7.06577885 C26.7872885,8.339625 27.7989231,10.510875 27.7989231,13.4877981 M21.0965192,8.18904808 C20.2536346,9.21885577 19.7664231,10.8293365 19.7664231,12.5895288 C19.7664231,14.5548173 20.3843077,16.3712596 21.5075769,17.6823173 C22.20075,18.487125 23.0436346,18.8990481 23.9791154,18.8990481 C26.0205577,18.8990481 27.387,16.7459712 27.387,13.5440481 C27.387,11.6159712 26.9188269,9.94924038 26.0015192,8.69443269 C25.2339231,7.64645192 24.3728654,7.14106731 23.3049808,7.14106731 C22.482,7.14106731 21.6200769,7.55299038 21.0965192,8.18904808 M16.5835385,13.132125 C16.5835385,15.1727019 17.6514231,16.9891442 19.5604615,18.2249135 C20.4033462,18.7493365 21.0021923,18.9925096 22.1072885,19.2166442 C18.8119038,17.8129904 17.2576731,15.8286635 17.2576731,13.0386635 C17.2576731,10.4927019 18.6812308,8.32058654 21.1709423,7.04760577 C18.5306538,7.85241346 16.5835385,10.4355865 16.5835385,13.132125 M28.2852692,7.83424038 C29.952,8.95664423 31.0190192,10.9980865 31.0190192,13.075875 C31.0190192,16.8203942 27.8742115,19.6856827 23.7549808,19.6856827 C19.3735385,19.6856827 16.1534423,16.9328942 16.1534423,13.1693365 C16.1534423,9.33135577 19.3553654,6.35443269 23.4737308,6.35443269 C25.0651731,6.35443269 26.9560385,6.93510577 28.2852692,7.83424038" id="Fill-1"></path>
                            <path d="M43.5796442,8.95699038 C43.4108942,7.66583654 43.4108942,7.64593269 43.2239712,7.51525962 C43.0180096,7.34650962 42.5870481,7.21583654 41.7822404,7.066125 C42.456375,7.36554808 42.9435865,7.87093269 43.5796442,8.95699038 M41.5762788,18.7678558 C42.625125,18.6371827 43.4861827,18.2996827 43.6549327,17.9440096 C43.7293558,17.8133365 43.7665673,17.6065096 43.8608942,16.4460288 C43.4299327,17.551125 42.7748365,18.2252596 41.5762788,18.7678558 M35.2295481,17.382375 C33.9747404,16.2591058 33.2633942,14.7239135 33.2633942,13.1134327 C33.2633942,11.1481442 34.2750288,9.29449038 36.0343558,8.07775962 C36.7647404,7.55333654 37.438875,7.234875 38.6365673,6.841125 C35.0798365,7.47804808 32.5892596,10.0430481 32.5892596,13.0390096 C32.5892596,15.2102596 33.8622404,17.2326635 35.9036827,18.2996827 C36.7084904,18.7306442 37.382625,18.9366058 38.4496442,19.0863173 C36.988875,18.6181442 36.0715673,18.1309327 35.2295481,17.382375 M43.5606058,6.841125 C44.0106058,7.02891346 44.1412788,7.19679808 44.1975288,7.75843269 C44.1975288,7.98343269 44.2347404,8.24564423 44.3100288,8.69477885 C44.3472404,8.93795192 44.3662788,9.16295192 44.3662788,9.29449038 C44.3662788,9.53766346 44.1975288,9.70641346 43.9543558,9.70641346 C43.6168558,9.70641346 43.6168558,9.70641346 42.625125,8.39535577 C42.0254135,7.57150962 41.3140673,7.19679808 40.3777212,7.19679808 C37.6257981,7.19679808 35.7721442,9.53766346 35.7721442,13.0017981 C35.7721442,16.2591058 37.5695481,18.6371827 40.0410865,18.6371827 C40.8649327,18.6371827 41.5762788,18.3559327 42.287625,17.7942981 C42.8310865,17.326125 42.8492596,17.326125 43.6168558,16.0531442 C43.7483942,15.8471827 43.9162788,15.7346827 44.1040673,15.7346827 C44.3844519,15.7346827 44.5159904,15.9224712 44.5159904,16.3343942 C44.5159904,17.663625 44.3844519,18.2806442 44.0287788,18.5618942 C43.3174327,19.1425673 41.7450288,19.497375 39.9666635,19.497375 C37.495125,19.497375 35.7539712,18.9366058 34.3122404,17.663625 C32.9457981,16.4650673 32.1591635,14.7801635 32.1591635,13.0390096 C32.1591635,11.1853558 33.0011827,9.49958654 34.5554135,8.28285577 C36.1468558,7.04708654 38.2064712,6.35477885 40.3214712,6.35477885 C41.3331058,6.35477885 42.9807981,6.59795192 43.5606058,6.841125" id="Fill-3"></path>
                            <path d="M47.284875,16.5961731 C47.284875,18.1685769 47.2095865,18.3745385 46.6297788,18.6557885 C47.1351635,18.6557885 47.4717981,18.4870385 47.7149712,18.1313654 C47.9027596,17.8501154 47.9590096,17.5134808 47.9590096,16.6705962 L47.9590096,9.33126923 C47.9590096,8.37675 47.8837212,8.05828846 47.5842981,7.75886538 C47.3220865,7.49665385 47.059875,7.40319231 46.6297788,7.40319231 C47.2095865,7.66540385 47.284875,7.87136538 47.284875,9.40655769 L47.284875,16.5961731 Z M46.8919904,9.48098077 C46.8919904,7.94665385 46.7794904,7.68444231 46.0681442,7.57194231 C45.3377596,7.45944231 45.1880481,7.36511538 45.1880481,7.04751923 C45.1880481,6.78530769 45.4130481,6.63559615 45.8059327,6.63559615 L46.3303558,6.65463462 C46.7422788,6.69184615 48.1649712,6.72905769 48.5396827,6.72905769 C48.8953558,6.72905769 50.3933365,6.69184615 50.7862212,6.65463462 L51.3097788,6.63559615 C51.7035288,6.63559615 51.9285288,6.78530769 51.9285288,7.04751923 C51.9285288,7.36511538 51.7779519,7.45944231 51.0475673,7.57194231 C50.3370865,7.68444231 50.2245865,7.94665385 50.2245865,9.48098077 L50.2245865,16.5208846 C50.2245865,18.0569423 50.3370865,18.29925 51.0475673,18.4307885 C51.7597788,18.5432885 51.9285288,18.63675 51.9285288,18.9552115 C51.9285288,19.2165577 51.7035288,19.3662692 51.3288173,19.3662692 C51.2353558,19.3662692 51.0103558,19.3480962 50.7862212,19.3290577 C50.3552596,19.3108846 48.9697788,19.2546346 48.6331442,19.2546346 C48.2393942,19.2546346 46.7232404,19.3108846 46.3303558,19.3290577 C46.1053558,19.3480962 45.8803558,19.3662692 45.7868942,19.3662692 C45.4130481,19.3662692 45.1880481,19.2165577 45.1880481,18.9552115 C45.1880481,18.63675 45.3567981,18.5432885 46.0681442,18.4307885 C46.7794904,18.29925 46.8919904,18.0370385 46.8919904,16.5208846 L46.8919904,9.48098077 Z" id="Fill-5"></path>
                            <path d="M61.0261442,16.9515 C61.3073942,17.6256346 61.3818173,17.8506346 61.3818173,18.0938077 C61.3818173,18.2997692 61.2693173,18.4494808 61.0261442,18.6182308 C61.6068173,18.5429423 61.8872019,18.2807308 61.8872019,17.8315962 C61.8872019,17.5693846 61.7937404,17.2318846 61.5315288,16.6330385 L58.3114327,8.80736538 L57.9747981,9.594 L61.0261442,16.9515 Z M57.9185481,10.6047692 C57.8622981,10.4541923 57.7870096,10.3425577 57.7497981,10.3425577 C57.6563365,10.3425577 57.1881635,11.4095769 56.5512404,13.0010192 C56.4949904,13.1697692 56.4205673,13.3385192 56.3452788,13.5064038 C56.2890288,13.6189038 56.2708558,13.7314038 56.2708558,13.8248654 C56.2708558,13.9936154 56.3833558,14.049 56.6827788,14.049 L58.9102788,14.049 C59.2287404,14.049 59.3222019,14.0117885 59.3222019,13.8992885 C59.3222019,13.8620769 59.3040288,13.8066923 59.2849904,13.7495769 L59.1915288,13.5254423 L57.9185481,10.6047692 Z M54.3981635,17.4759231 C54.0987404,18.2244808 53.8555673,18.4866923 53.2376827,18.7489038 C53.7802788,18.7116923 54.0243173,18.6926538 54.3799904,18.6926538 C54.6422019,18.6926538 54.8100865,18.6926538 55.8771058,18.7489038 C54.9044135,18.5057308 54.660375,18.2807308 54.660375,17.5321731 C54.660375,17.2318846 54.660375,17.1946731 54.8481635,16.3526538 C54.8100865,16.4461154 54.772875,16.5586154 54.716625,16.6711154 L54.3981635,17.4759231 Z M56.3080673,14.9862115 C55.8771058,14.9862115 55.7836442,15.0606346 55.6529712,15.4907308 C55.2600865,16.78275 55.2038365,17.064 55.2038365,17.4759231 C55.2038365,18.0185192 55.5595096,18.2997692 56.3833558,18.4122692 C56.9822019,18.4866923 57.1881635,18.5991923 57.1881635,18.8804423 C57.1881635,19.1980385 56.9631635,19.3667885 56.5330673,19.3667885 C56.4205673,19.3667885 56.2327788,19.34775 56.0268173,19.3295769 C55.4097981,19.2733269 55.054125,19.2551538 54.5859519,19.2551538 C54.1177788,19.2551538 53.8555673,19.2733269 53.1623942,19.3295769 C52.9754712,19.34775 52.7885481,19.3667885 52.6379712,19.3667885 C52.2831635,19.3667885 52.0581635,19.1798654 52.0581635,18.9176538 C52.0581635,18.6364038 52.2269135,18.5057308 52.6570096,18.4304423 C53.4998942,18.2807308 53.5751827,18.2063077 54.3237404,16.3526538 C55.4660481,13.5998654 56.9077788,10.0431346 58.1245096,7.04717308 C58.3676827,6.46736538 58.5926827,6.29861538 59.1543173,6.29861538 C59.5472019,6.29861538 59.6969135,6.42928846 59.902875,6.93467308 C60.3338365,8.05794231 60.3520096,8.09601923 61.9252788,11.7842885 C62.467875,13.0763077 62.9922981,14.3311154 63.5167212,15.5850577 C63.7971058,16.1839038 64.0783558,16.8017885 64.3777788,17.4759231 C64.7897019,18.3188077 64.976625,18.4685192 65.5572981,18.4685192 C66.0436442,18.4685192 66.2123942,18.5991923 66.2123942,18.8986154 C66.2123942,19.23525 66.0626827,19.3667885 65.6697981,19.3667885 C65.4075865,19.3667885 65.4075865,19.3667885 63.9468173,19.2923654 C63.5348942,19.2733269 63.1229712,19.2551538 62.7300865,19.2551538 C62.1494135,19.2551538 61.2130673,19.2923654 60.6142212,19.3295769 C60.3520096,19.34775 60.0897981,19.3667885 59.959125,19.3667885 C59.621625,19.3667885 59.4347019,19.2170769 59.4347019,18.9548654 C59.4347019,18.6364038 59.5662404,18.5619808 60.2585481,18.4494808 C60.7457596,18.3741923 60.9508558,18.2435192 60.9508558,18.0185192 C60.9508558,17.8878462 60.7076827,17.1765 60.4645096,16.5767885 C60.0525865,15.6222692 59.846625,15.1359231 59.8094135,15.0978462 C59.734125,15.0043846 59.677875,14.9862115 59.3222019,14.9862115 L56.3080673,14.9862115 Z" id="Fill-7"></path>
                            <path d="M13.2199615,3.27392308 C13.4094808,2.29344231 12.5562115,1.81921154 10.089,1.56651923 C11.76525,2.16709615 12.6505385,3.27392308 13.2831346,5.61478846 C13.2519808,5.01334615 13.2519808,4.60228846 13.2519808,4.38075 L13.2199615,3.27392308 Z M10.6895769,21.5543077 C12.2394808,20.8905577 13.2519808,19.4038269 13.2519808,17.7595962 C13.2519808,15.60825 11.7332308,14.1535385 7.93851923,12.6668077 C3.35198077,10.8642115 2.15082692,9.75738462 2.15082692,7.25901923 C2.15082692,4.69661538 3.85823077,2.67248077 7.17957692,1.34498077 C5.78803846,1.62969231 5.06025,1.91353846 4.11092308,2.54613462 C2.30832692,3.74815385 1.17034615,5.64594231 1.17034615,7.48055769 C1.17034615,8.84007692 1.80294231,10.1684423 2.94092308,11.1809423 C3.60553846,11.7503654 4.93390385,12.4772885 6.76765385,13.1730577 C10.9742885,14.8493077 12.1451538,15.9249808 12.1451538,18.1386346 C12.1451538,19.467 11.4805385,20.637 10.3737115,21.2695962 C9.74111538,21.6495 9.23486538,21.8078654 7.96967308,22.0925769 C9.36121154,21.9973846 9.93063462,21.8710385 10.6895769,21.5543077 L10.6895769,21.5543077 Z M0.759288462,19.7517115 C0.759288462,20.7633462 0.916788462,20.8905577 3.03611538,21.5543077 C1.64457692,20.1627692 1.17034615,19.2134423 0.759288462,17.2213269 L0.759288462,19.7517115 Z M14.4219808,6.02498077 C14.4219808,6.56325 14.2004423,6.84796154 13.6941923,6.84796154 C13.0936154,6.84796154 12.9040962,6.59440385 12.3978462,5.13969231 C11.6700577,3.17873077 10.4680385,2.19825 8.72948077,2.19825 C6.57813462,2.19825 4.96505769,3.43228846 4.96505769,5.07651923 C4.96505769,5.96180769 5.31294231,6.59440385 6.07275,7.13267308 C6.54698077,7.48055769 7.87534615,8.01796154 10.4368846,8.90325 C14.1692885,10.2316154 15.9087115,12.2877692 15.9087115,15.4819038 C15.9087115,20.0995962 12.3978462,23.1673846 7.11640385,23.1673846 C3.79505769,23.1673846 0.664096154,22.3772885 0.157846154,21.4279615 C0.000346153846,21.1120962 0.000346153846,21.1120962 0.000346153846,18.1697885 C0.000346153846,16.3360385 0.126692308,16.0201731 0.853615385,16.0201731 C1.17034615,16.0201731 1.42303846,16.1776731 1.61255769,16.4944038 C1.67659615,16.5887308 1.67659615,16.5887308 2.214,18.2018077 C2.97294231,20.3211346 4.64919231,21.4911346 6.89486538,21.4911346 C9.55159615,21.4911346 11.4173654,20.0995962 11.4173654,18.1066154 C11.4173654,16.3360385 10.2473654,15.2923846 6.51496154,13.8056538 C2.02448077,12.0342115 0.442557692,10.3899808 0.442557692,7.48055769 C0.442557692,3.59065385 4.30130769,0.522 9.17169231,0.522 C10.7215962,0.522 12.6193846,0.806711538 13.4726538,1.18575 C14.2004423,1.50248077 14.4219808,1.85123077 14.4219808,2.57815385 L14.4219808,6.02498077 Z" id="Fill-9"></path>
                            <path d="M82.7802692,17.1736442 C81.8629615,19.0082596 81.0408462,19.7672019 79.39575,20.2734519 C79.5541154,20.2414327 79.6813269,20.2414327 79.7436346,20.2414327 C79.9651731,20.2414327 81.5470962,20.3046058 81.7366154,20.336625 L81.9261346,20.336625 C82.1476731,20.336625 82.1476731,20.336625 82.6219038,17.7750865 L82.7802692,17.1736442 Z M69.2750769,16.8257596 C69.2750769,19.4824904 69.1487308,19.830375 68.16825,20.3046058 C69.0223846,20.3046058 69.5918077,20.0198942 70.0028654,19.4193173 C70.3195962,18.9450865 70.4139231,18.3756635 70.4139231,16.9521058 L70.4139231,4.55460577 C70.4139231,2.94152885 70.2875769,2.40325962 69.7813269,1.897875 C69.3391154,1.45479808 68.8960385,1.29729808 68.16825,1.29729808 C69.1487308,1.73950962 69.2750769,2.08739423 69.2750769,4.68095192 L69.2750769,16.8257596 Z M68.6113269,4.80729808 C68.6113269,2.21374038 68.4218077,1.77152885 67.2197885,1.58114423 C65.9866154,1.391625 65.7330577,1.23325962 65.7330577,0.695855769 C65.7330577,0.253644231 66.1129615,8.65384615e-05 66.7767115,8.65384615e-05 C66.9350769,8.65384615e-05 67.3149808,8.65384615e-05 67.6628654,0.0321057692 C68.16825,0.0632596154 71.5527692,0.157586538 72.1533462,0.157586538 C72.3437308,0.157586538 73.4505577,0.126432692 75.4426731,0.0321057692 L76.4551731,8.65384615e-05 C77.2452692,8.65384615e-05 77.7195,0.253644231 77.7195,0.695855769 C77.7195,1.23325962 77.4036346,1.391625 75.9169038,1.58114423 C74.4621923,1.77152885 74.2406538,2.21374038 74.2406538,4.80729808 L74.2406538,15.3390288 C74.2406538,17.2368173 74.3990192,18.5020096 74.71575,19.0082596 C75.0627692,19.5776827 75.9489231,19.9247019 77.0869038,19.9247019 C78.4793077,19.9247019 79.6493077,19.5145096 80.6297885,18.7235481 C81.3255577,18.1221058 81.4198846,17.9957596 82.4644038,16.2563365 C82.6850769,15.9084519 83.0018077,15.7189327 83.3817115,15.7189327 C83.8239231,15.7189327 84.0766154,16.0036442 84.0766154,16.4147019 C84.0766154,16.6673942 84.0454615,17.0152788 83.9502692,17.3631635 C83.7919038,18.1852788 83.4440192,20.1462404 83.4128654,20.5261442 C83.3176731,21.2539327 83.1601731,21.506625 82.7802692,21.506625 C82.59075,21.506625 82.2428654,21.506625 81.5150769,21.4434519 C80.3762308,21.4114327 75.7273846,21.3171058 74.0199808,21.3171058 C71.8054615,21.3171058 68.6433462,21.3802788 67.6628654,21.4434519 C67.2829615,21.4746058 66.9039231,21.506625 66.7455577,21.506625 C66.1129615,21.506625 65.7330577,21.2539327 65.7330577,20.8108558 C65.7330577,20.2734519 66.0177692,20.1150865 67.2197885,19.9247019 C68.4218077,19.7040288 68.6113269,19.2609519 68.6113269,16.6994135 L68.6113269,4.80729808 Z" id="Fill-11"></path>
                            <path d="M22.2447981,32.1942981 C23.0643173,32.6918942 23.7799904,33.6533365 24.1122981,34.6883365 C24.4454712,35.7224712 24.3797019,36.8604519 23.9582596,37.7569904 C23.6302788,38.3947788 23.2676827,38.7651635 22.4524904,39.3068942 C24.5181635,38.2364135 25.5401827,36.2079519 24.926625,34.2997788 C24.3269135,32.4374712 22.5511442,31.4102596 20.3184519,31.647375 C21.2565288,31.7252596 21.7290288,31.8524712 22.2447981,32.1942981 L22.2447981,32.1942981 Z M20.8472019,27.1387212 C21.3274904,28.6332404 21.0497019,29.6613173 19.8459519,30.8096827 C20.5607596,30.4271827 20.8835481,30.1710288 21.2496058,29.5721827 C21.8008558,28.6842981 21.9644135,27.6934327 21.6900865,26.8418942 C21.439125,26.0604519 20.8195096,25.3967019 19.9982596,25.0522788 C19.3215288,24.7632404 18.8256635,24.7191058 17.8088365,24.8688173 C19.5023942,25.0090096 20.3807596,25.6900673 20.8472019,27.1387212 L20.8472019,27.1387212 Z M18.6292212,36.8067981 C19.0290288,38.048625 19.267875,38.554875 19.6382596,38.9183365 C20.0692212,39.3120865 20.809125,39.4038173 21.6831635,39.1225673 C23.4996058,38.5384327 24.2343173,36.8812212 23.576625,34.8354519 C22.8367212,32.536125 20.8922019,31.5383365 18.592875,32.277375 C17.3977788,32.6624712 17.3207596,32.7377596 17.5647981,33.4967019 L18.6292212,36.8067981 Z M16.6630673,30.6919904 C16.9356635,31.5426635 17.0421058,31.6352596 17.4557596,31.5019904 C18.6283558,31.1246827 19.2583558,30.7949712 19.6910481,30.3267981 C20.4785481,29.5410288 20.6879712,28.4584327 20.325375,27.3317019 C19.785375,25.6537212 18.2899904,24.8662212 16.680375,25.3845865 C16.0823942,25.5758365 15.5752788,25.8917019 15.4420096,26.1885288 C15.3407596,26.4239135 15.3684519,26.6688173 15.656625,27.5653558 L16.6630673,30.6919904 Z M15.2204712,38.5124712 C15.8418173,40.4440096 15.8383558,40.7494904 15.229125,41.299875 C15.8504712,41.0999712 16.1974904,40.759875 16.3558558,40.2276635 C16.4519135,39.8157404 16.3800865,39.3570865 16.0547019,38.3454519 L13.3036442,29.7937212 C12.697875,27.9080481 12.1829712,27.4900673 10.9108558,27.8742981 C11.7269135,27.9668942 11.9077788,28.2126635 12.5360481,30.1667019 L15.2204712,38.5124712 Z M11.9796058,30.0922788 C11.4473942,28.4367981 11.1600865,28.1745865 10.1796058,28.4385288 C9.16018269,28.7414135 8.89364423,28.7007404 8.76816346,28.3095865 C8.65652885,27.9651635 8.91095192,27.7306442 10.1475865,27.0790096 C12.1146058,26.0154519 14.4156635,25.0470865 16.9443173,24.233625 C19.0593173,23.5534327 20.4975865,23.3699712 21.8233558,23.6287212 C23.2789327,23.8952596 24.3165288,24.7545865 24.7154712,25.9955481 C25.1083558,27.2140096 24.6670096,28.4471827 23.5186442,29.4510288 C23.0634519,29.8508365 22.6567212,30.0827596 21.1137404,30.8070865 C23.0435481,30.3389135 23.8076827,30.2705481 24.7829712,30.4643942 C26.3302788,30.7785288 27.3972981,31.7295865 27.885375,33.2466058 C28.3734519,34.763625 28.0368173,36.2417019 26.9247981,37.4367981 C25.927875,38.5185288 24.6834519,39.2229519 22.5225865,39.9187212 C21.7177788,40.1774712 21.7177788,40.1774712 19.5197019,40.7572788 C19.2133558,40.8308365 18.615375,41.0229519 17.8797981,41.2592019 C17.4895096,41.3846827 16.5765288,41.7040096 15.127875,42.2457404 C14.8362404,42.3651635 14.5446058,42.4845865 14.452875,42.5140096 C14.0158558,42.6542019 13.6740288,42.5356442 13.5771058,42.2379519 C13.451625,41.8467981 13.6221058,41.6650673 14.4511442,41.2462212 C15.2723942,40.8040096 15.3147981,40.4604519 14.7081635,38.5756442 L11.9796058,30.0922788 Z" id="Fill-13"></path>
                            <path d="M41.7494423,36.0187788 C41.9329038,36.0040673 41.9753077,35.953875 41.9605962,35.7712788 C41.9796346,35.1456058 42.03675,34.4247404 42.1405962,33.7004135 C41.4993462,35.2070481 40.8606923,35.8820481 39.7971346,36.1520481 L41.7494423,36.0187788 Z M38.4531923,22.2877212 C39.2268462,22.4331058 40.0143462,23.0397404 40.6426154,23.9596442 L40.5993462,23.7086827 L40.5249231,23.0682981 L40.4764615,22.4720481 C40.4513654,22.150125 40.3786731,22.1094519 39.9658846,22.1432019 L39.7824231,22.1579135 L38.4531923,22.2877212 Z M37.5428077,28.7807019 C38.5172308,28.8412788 39.0355962,29.2618558 39.573,30.4889712 C39.4155,29.6703173 39.35925,29.2583942 39.3116538,28.6621442 C39.2631923,28.0658942 39.2588654,27.7197404 39.2986731,27.0698365 C38.93175,28.2536827 38.5890577,28.5816635 37.5428077,28.7807019 L37.5428077,28.7807019 Z M32.1332885,25.266375 C32.0389615,24.096375 31.9160769,23.7130096 31.5197308,23.3755096 C31.1727115,23.0795481 30.8421346,22.9912788 30.31425,23.0328173 C31.0515577,23.297625 31.1631923,23.5425288 31.3146346,25.423875 L32.0216538,34.2360865 C32.1765577,36.1632981 32.1073269,36.4462788 31.4210769,36.8253173 C32.0406923,36.775125 32.4370385,36.5354135 32.7009808,36.0750288 C32.9026154,35.7124327 32.9380962,35.2944519 32.8550192,34.2620481 L32.1332885,25.266375 Z M35.10675,27.4990673 C35.1785769,28.393875 35.1785769,28.393875 36.3494423,28.2995481 C38.3450192,28.1394519 38.4107885,28.0875288 39.0754038,26.3022404 C39.2104038,25.9682019 39.3393462,25.8427212 39.5911731,25.8228173 C39.9122308,25.7968558 40.1605962,26.0071442 40.1865577,26.3282019 C40.1952115,26.4441635 40.1891538,26.6518558 40.1865577,26.9062788 C40.1640577,27.2082981 40.1934808,28.4302212 40.2263654,28.8430096 C40.2505962,29.1415673 40.2505962,29.1415673 40.4704038,30.4396442 C40.5058846,30.598875 40.5205962,30.7823365 40.5318462,30.9199327 C40.5612692,31.2868558 40.39425,31.5083942 40.0498269,31.5360865 C39.6829038,31.5655096 39.5323269,31.4157981 39.1731923,30.6828173 C38.6487692,29.6157981 38.0187692,29.2506058 36.8487692,29.3449327 C35.4027115,29.4608942 35.2729038,29.563875 35.3481923,30.5045481 L35.5489615,33.0055096 C35.7575192,35.5990673 36.3174231,36.2472404 38.1529038,36.0992596 C39.2545385,36.0109904 40.1484808,35.638875 40.7646346,34.9656058 C41.1895385,34.5164712 41.2111731,34.491375 41.90175,33.0271442 C42.0384808,32.7156058 42.2124231,32.5866635 42.4884808,32.5641635 C42.8095385,32.5390673 43.0328077,32.7285865 43.0587692,33.0496442 C43.0674231,33.1647404 43.0596346,33.3499327 43.0302115,33.5602212 C42.9203077,34.4922404 42.8424231,35.5384904 42.8605962,35.7678173 C42.8761731,36.5284904 42.7809808,36.7907019 42.3906923,36.8218558 C42.2072308,36.8365673 41.9303077,36.8357019 41.6075192,36.8382981 L37.6302115,37.0650288 C34.7389615,37.2978173 31.9195385,37.5695481 31.1225192,37.7036827 L30.4821346,37.7772404 C30.0001154,37.8161827 29.7093462,37.6552212 29.68425,37.3341635 C29.6522308,36.9430096 29.8504038,36.8123365 30.7105962,36.6046442 C31.5699231,36.3744519 31.6832885,36.0646442 31.5327115,34.1824327 L30.8395385,25.5545481 C30.6889615,23.6732019 30.5254038,23.3625288 29.6418462,23.2950288 C28.7357885,23.2292596 28.5436731,23.128875 28.5125192,22.7394519 C28.4865577,22.4175288 28.7470385,22.2124327 29.2290577,22.1734904 L29.8729038,22.1449327 C30.5427115,22.1380096 32.4508846,22.0307019 33.4149231,21.9528173 C35.6173269,21.7762788 39.0754038,21.4058942 40.1900192,21.2007981 L40.7386731,21.1341635 C41.0372308,21.1099327 41.1860769,21.2362788 41.2103077,21.5348365 C41.2172308,21.6274327 41.2336731,21.8333942 41.2258846,22.0185865 C41.2215577,22.2505096 41.2414615,22.5023365 41.2622308,22.7550288 C41.2916538,23.1219519 41.3435769,23.4871442 41.3946346,23.8298365 C41.4301154,23.9882019 41.4430962,24.1491635 41.4526154,24.2642596 C41.4837692,24.6545481 41.3608846,24.8492596 41.0398269,24.8743558 C40.7179038,24.9003173 40.5465577,24.7757019 40.2341538,24.3386827 C39.2960769,23.005125 38.4981923,22.5611827 37.2589615,22.6607019 C36.0430962,22.7584904 35.1552115,22.9220481 34.9613654,23.0994519 C34.8099231,23.2266635 34.8099231,23.2266635 34.8696346,24.5385865 L35.10675,27.4990673 Z" id="Fill-15"></path>
                            <path d="M55.1424808,23.2679423 C55.8711346,23.5665 56.5201731,24.32025 56.9502692,25.3483269 L56.9589231,25.0939038 L57.0143077,24.4509231 L57.0887308,23.8572692 C57.1276731,23.5370769 57.0653654,23.4825577 56.6534423,23.4315 L56.4708462,23.409 L55.1424808,23.2679423 Z M55.6002692,37.3849615 C55.7828654,37.4074615 55.8339231,37.3676538 55.8564231,37.1850577 C56.0018077,36.5766923 56.2034423,35.8817885 56.4509423,35.1938077 C55.5189231,36.5403462 54.7573846,37.0725577 53.6600769,37.1218846 L55.6002692,37.3849615 Z M52.9392115,29.4459231 C53.8824808,29.7020769 54.3056538,30.2178462 54.5843077,31.5289038 C54.5946923,30.6946731 54.62325,30.2801538 54.6959423,29.6865 C54.7703654,29.0919808 54.8352692,28.75275 55.00575,28.1236154 C54.4077692,29.2096731 54.0053654,29.4615 52.9392115,29.4459231 L52.9392115,29.4459231 Z M48.3500769,24.9104423 C48.4937308,23.7447692 48.4504615,23.3449615 48.1302692,22.9339038 C47.8498846,22.5739038 47.5444038,22.4207308 47.01825,22.3558269 C47.6871923,22.7634231 47.7477692,23.0265 47.5158462,24.9000577 L46.4297885,33.6750577 C46.1926731,35.5944808 46.0671923,35.8584231 45.3186346,36.0903462 C45.9365192,36.1665 46.3726731,36.0115962 46.7240192,35.6143846 C46.9948846,35.2993846 47.1143077,34.8969808 47.2415192,33.8689038 L48.3500769,24.9104423 Z M50.8120962,27.6969808 C50.7021923,28.5891923 50.7021923,28.5891923 51.8678654,28.7337115 C53.8556538,28.9786154 53.9300769,28.9414038 54.9417115,27.3265962 C55.1416154,27.0263077 55.2930577,26.9293846 55.5440192,26.9605385 C55.8642115,27.0003462 56.0641154,27.2573654 56.0251731,27.5766923 C56.0104615,27.6909231 55.962,27.8934231 55.9083462,28.1426538 C55.8261346,28.4334231 55.6071923,29.6363077 55.5561346,30.0473654 C55.5197885,30.3450577 55.5197885,30.3450577 55.4730577,31.6613077 C55.4756538,31.8248654 55.4531538,32.0074615 55.4367115,32.1441923 C55.3908462,32.51025 55.1831538,32.6928462 54.8404615,32.6513077 C54.4744038,32.6054423 54.3575769,32.4289038 54.1533462,31.6379423 C53.8547885,30.4869808 53.3113269,30.0023654 52.1456538,29.8578462 C50.7065192,29.6795769 50.5576731,29.754 50.4425769,30.6912115 L50.1336346,33.1826538 C49.8143077,35.7649615 50.2322885,36.5126538 52.0608462,36.7385192 C53.1572885,36.8743846 54.1083462,36.6909231 54.8473846,36.15525 C55.3553654,35.8004423 55.3813269,35.7805385 56.3531538,34.4850577 C56.5495962,34.2081346 56.7469038,34.1164038 57.0212308,34.1501538 C57.3414231,34.1899615 57.5214231,34.4210192 57.4816154,34.7412115 C57.4677692,34.8554423 57.4219038,35.0354423 57.3509423,35.2353462 C57.0549808,36.1266923 56.7676731,37.1357308 56.7399808,37.3641923 C56.6006538,38.11275 56.4552692,38.3498654 56.0667115,38.3014038 C55.8841154,38.2789038 55.6123846,38.2226538 55.2956538,38.1594808 L51.3529615,37.5788077 C48.4738269,37.2231346 45.657,36.9211154 44.8487308,36.8899615 L44.20575,36.8345769 C43.7263269,36.7748654 43.4745,36.5576538 43.5143077,36.2383269 C43.5619038,35.8489038 43.7817115,35.7606346 44.6678654,35.7312115 C45.55575,35.6784231 45.7296923,35.3989038 45.9616154,33.5244808 L47.0243077,24.9320769 C47.2562308,23.0576538 47.1593077,22.7210192 46.3077692,22.4769808 C45.4328654,22.2294808 45.2641154,22.0918846 45.3125769,21.7041923 C45.3523846,21.384 45.6492115,21.2351538 46.1286346,21.294 L46.7655577,21.3961154 C47.42325,21.5241923 49.3141154,21.8045769 50.2738269,21.9231346 C52.4675769,22.1948654 55.9299808,22.5306346 57.0636346,22.5548654 L57.6148846,22.5998654 C57.9125769,22.6362115 58.0328654,22.79025 57.9956538,23.0879423 C57.9844038,23.1788077 57.9584423,23.3839038 57.9134423,23.5647692 C57.8623846,23.7897692 57.8312308,24.0415962 57.8000769,24.2925577 C57.7550769,24.6586154 57.7325769,25.0272692 57.7126731,25.3725577 C57.7161346,25.53525 57.6962308,25.6953462 57.6823846,25.8095769 C57.6339231,26.1981346 57.4746923,26.3642885 57.1545,26.3244808 C56.8343077,26.2846731 56.6915192,26.1280385 56.4734423,25.6373654 C55.8235385,24.1411154 55.1312308,23.5448654 53.8971923,23.3925577 C52.6865192,23.2428462 51.7839231,23.2238077 51.5580577,23.3579423 C51.3841154,23.4531346 51.3841154,23.4531346 51.1772885,24.7494808 L50.8120962,27.6969808 Z" id="Fill-17"></path>
                            <path d="M71.3719904,31.5532212 C70.7445865,33.1126442 69.7684327,33.6872596 67.8914135,33.6024519 C68.7464135,33.8222596 69.3539135,33.7937019 70.1924712,33.5600481 C71.1807404,33.2632212 71.7882404,32.7379327 72.1326635,31.8837981 C72.7600673,30.324375 72.1897788,28.7796635 70.5628558,27.703125 C71.6852596,28.8004327 71.956125,30.1002404 71.3719904,31.5532212 L71.3719904,31.5532212 Z M68.3993942,36.2886058 C68.243625,34.8866827 67.7408365,34.0386058 66.8010288,33.6604327 C66.7153558,33.6258173 66.6089135,33.5825481 66.4721827,33.5522596 C67.253625,34.0161058 67.3938173,34.3458173 67.6127596,36.3941827 L68.1155481,41.1884135 C68.1994904,41.9663942 68.1994904,41.9663942 68.6053558,42.1299519 L68.9895865,42.2848558 L68.3993942,36.2886058 Z M66.1545865,31.9357212 C65.9140096,32.5345673 65.9901635,32.7137019 66.5249712,32.9283173 C67.208625,33.2035096 68.2600673,33.3038942 68.9489135,33.1342788 C69.9025673,32.9222596 70.4512212,32.4237981 70.8544904,31.4190865 C71.5597788,29.6675481 70.9860288,28.0717788 69.447375,27.4530288 C68.6789135,27.1432212 68.2038173,27.2747596 67.8516058,27.9030288 C67.7140096,28.1211058 67.4007404,28.8385096 67.0139135,29.7999519 L66.1545865,31.9357212 Z M60.6351635,35.9701442 C59.9047788,37.7857212 59.7247788,37.985625 58.9416058,38.0185096 C59.5188173,38.2504327 59.9722788,38.2339904 60.4214135,37.9189904 C60.7554519,37.7061058 60.9743942,37.3469712 61.3612212,36.3863942 L64.7301635,28.0120673 C65.1689135,26.9225481 65.2294904,26.5253365 65.0243942,26.0459135 C64.846125,25.6270673 64.5899712,25.3994712 64.0984327,25.2012981 C64.6410288,25.7672596 64.6315096,26.0363942 63.9262212,27.7887981 L60.6351635,35.9701442 Z M64.1001635,24.2095673 C64.7457404,24.5185096 66.2021827,25.1545673 66.9291058,25.4470673 C67.8256442,25.8079327 67.8256442,25.8079327 69.8471827,26.521875 C70.2617019,26.6637981 70.7316058,26.8524519 71.3295865,27.0930288 C73.294875,27.8839904 74.2043942,28.5226442 74.8006442,29.5074519 C75.3847788,30.4619712 75.4938173,31.6726442 75.0983365,32.6548558 C74.5479519,34.0221635 73.1780481,34.835625 71.5450673,34.824375 C70.9635288,34.7888942 70.4590096,34.6850481 69.4551635,34.4055288 C70.8475673,35.263125 71.0050673,35.5495673 71.2612212,37.5650481 L71.5684327,40.1949519 C71.7683365,42.6587019 71.866125,42.9702404 72.5117019,43.2800481 C72.9556442,43.5327404 73.0967019,43.7378365 72.9668942,44.0588942 C72.8474712,44.3574519 72.5558365,44.4638942 72.2356442,44.3349519 C72.0859327,44.2752404 71.8384327,44.150625 71.5909327,44.0260096 C71.202375,43.8200481 70.5784327,43.5188942 70.1725673,43.3562019 C69.7883365,43.2012981 69.5867019,43.1450481 68.8346827,42.9174519 C68.569875,42.8352404 68.3050673,42.7538942 68.1345865,42.6855288 C67.7494904,42.530625 67.7494904,42.530625 67.636125,41.5163942 L67.1419904,36.5767788 C66.8884327,34.8624519 66.8884327,34.8624519 66.7863173,34.4989904 C66.6547788,34.1476442 66.4072788,33.8992788 65.9590096,33.7184135 C65.5315096,33.5470673 65.5315096,33.5470673 64.9941058,34.8200481 L64.0144904,37.2552404 C63.3100673,39.0067788 63.3265096,39.3364904 64.0863173,39.7908173 C64.8591058,40.2754327 64.9871827,40.4511058 64.8417981,40.8137019 C64.7292981,41.0923558 64.396125,41.180625 63.968625,41.0092788 L63.3576635,40.7384135 C62.8834327,40.4978365 61.3283365,39.7977404 60.9657404,39.6523558 C60.6239135,39.5138942 58.6542981,38.7964904 58.2735288,38.6926442 L57.6452596,38.4650481 C57.218625,38.2928365 57.0394904,37.9977404 57.151125,37.7199519 C57.297375,37.3564904 57.511125,37.3192788 58.4042019,37.5044712 C59.2678558,37.7026442 59.5162212,37.4560096 60.2119904,35.7252404 L63.4442019,27.6927404 C64.148625,25.9412019 64.1408365,25.5907212 63.3801635,25.1355288 C62.5987212,24.6725481 62.4706442,24.496875 62.6168942,24.1342788 C62.7371827,23.8348558 63.0625673,23.7673558 63.5108365,23.9473558 L64.1001635,24.2095673 Z" id="Fill-19"></path>
                        </g>
                    </g>
                </g>
            </g>
        </g>
    </g>
</svg>