<?xml version="1.0" encoding="UTF-8"?>
<svg width="77px" height="41px" viewBox="0 0 77 41" version="1.1" xmlns="http://www.w3.org/2000/svg" xmlns:xlink="http://www.w3.org/1999/xlink">
    <!-- Generator: Sketch 51.1 (57501) - http://www.bohemiancoding.com/sketch -->
    <title>cloudforce dark</title>
    <desc>Created with Sketch.</desc>
    <defs>
        <polygon id="path-1" points="1.35525272e-20 0.165 1.35525272e-20 8.673 7.0039 8.673 7.0039 0.165 0 0.165"></polygon>
    </defs>
    <g id="Page-1" stroke="none" stroke-width="1" fill="none" fill-rule="evenodd">
        <g id="O-Book" transform="translate(-1100.000000, -756.000000)">
            <g id="Published-on" transform="translate(809.000000, 710.000000)">
                <g id="Company-Social-Proof" transform="translate(0.000000, 44.000000)">
                    <g id="cloudforce-dark" transform="translate(291.000000, 2.000000)">
                        <g id="Page-1">
                            <path d="M27.5361,15.4482 L22.0521,20.9342 L22.9301,20.9342 L25.5451,20.9342 L33.3941,20.9342 C37.0081,20.9342 39.9361,18.0032 39.9361,14.3912 C39.9361,11.7082 38.3191,9.4082 36.0111,8.3992 C35.9511,3.7512 32.1731,0.0002 27.5091,0.0002 C23.8591,0.0002 20.7511,2.3052 19.5491,5.5372 C18.8331,4.5632 17.6911,3.9242 16.3861,3.9242 C14.2201,3.9242 12.4621,5.6812 12.4621,7.8502 C12.4621,8.0292 12.4921,8.2002 12.5151,8.3742 C10.1771,9.3702 8.5361,11.6892 8.5361,14.3912 C8.5361,18.0032 11.4691,20.9342 15.0791,20.9342 L16.8701,20.9342 L24.9471,12.8582 L21.1471,9.0592 L31.3371,9.0592 L31.3361,19.2482" id="Fill-1" fill="#1E3264"></path>
                            <g id="Group-5" transform="translate(0.000000, 27.172800)">
                                <mask id="mask-2" fill="white">
                                    <use xlink:href="#path-1"></use>
                                </mask>
                                <g id="Clip-4"></g>
                                <path d="M7.0039,6.729 C6.1799,7.866 4.9679,8.673 3.8699,8.673 C1.4299,8.673 -0.0001,6.784 -0.0001,4.804 C-0.0001,3.428 0.6589,2.163 1.8529,1.265 C2.9529,0.44 4.1249,0.165 4.8219,0.165 L4.8409,0.165 C5.5189,0.165 6.1239,0.385 6.4359,0.623 C6.6929,0.825 6.7679,1.008 6.7679,1.265 C6.7489,1.742 6.3079,2.182 6.0329,2.182 C5.9219,2.182 5.8139,2.126 5.6489,1.98 C4.9679,1.375 4.3639,1.1 3.7959,1.1 C2.8979,1.1 1.9989,1.925 1.9989,3.869 C1.9989,6.344 3.7399,7.151 4.6199,7.151 C5.3909,7.151 5.9399,6.949 6.6749,6.308 L7.0039,6.729 Z" id="Fill-3" fill="#1E3264" mask="url(#mask-2)"></path>
                            </g>
                            <path d="M7.2764,35.6255 L7.2764,35.0755 C8.3944,34.9285 8.5224,34.8365 8.5224,33.6455 L8.5224,25.1555 C8.5224,23.9815 8.4314,23.9455 7.3504,23.8175 L7.3504,23.3225 C8.3774,23.2115 9.6604,22.9375 10.5404,22.6805 L10.5404,33.6455 C10.5404,34.8745 10.6684,34.9655 11.8054,35.0755 L11.8054,35.6255 L7.2764,35.6255 Z" id="Fill-6" fill="#1E3264"></path>
                            <path d="M14.9561,31.1333 C14.9561,33.4063 15.7821,35.1673 17.0661,35.1673 C17.9281,35.1673 18.7331,34.5803 18.7331,31.9403 C18.7331,29.5563 18.0001,28.0163 16.6621,28.0163 C15.7821,28.0163 14.9561,29.0433 14.9561,31.1333 M21.0261,31.4453 C21.0261,34.3973 18.8981,35.8453 16.8641,35.8453 C14.1131,35.8453 12.6651,33.7923 12.6651,31.7753 C12.6651,28.8043 14.9931,27.3383 16.9361,27.3383 C19.3761,27.3383 21.0261,29.2263 21.0261,31.4453" id="Fill-8" fill="#1E3264"></path>
                            <path d="M31.2354,35.1855 C30.7404,35.2405 30.2274,35.3505 29.6764,35.4795 C29.1274,35.5885 28.5954,35.7355 28.1174,35.8455 L27.9704,35.7175 L27.9704,34.5435 C27.6234,34.8185 27.3484,35.0755 26.8894,35.3325 C26.3574,35.6625 25.9004,35.8455 25.3494,35.8455 C23.9364,35.8455 23.0034,34.9475 23.0034,33.1875 L23.0034,29.4825 C23.0034,28.5845 22.8734,28.4925 22.4164,28.3825 L21.9564,28.2545 L21.9564,27.7595 C22.3794,27.7415 22.9104,27.6865 23.4784,27.6305 C24.0484,27.5755 24.6514,27.5025 25.0744,27.4295 C25.0184,28.1255 25.0184,29.0425 25.0184,30.1615 L25.0184,32.7475 C25.0184,34.1045 25.6984,34.5255 26.4134,34.5255 C26.9634,34.5255 27.4764,34.3605 27.9704,33.8835 L27.9704,29.5015 C27.9704,28.6035 27.8434,28.4745 27.3114,28.3825 L26.7064,28.2545 L26.7064,27.7595 C27.2374,27.7415 27.8804,27.6865 28.4844,27.6305 C29.0714,27.5755 29.6214,27.5025 29.9884,27.4295 L29.9884,33.4435 C29.9884,34.3785 30.1164,34.5435 30.7944,34.5995 L31.2354,34.6355 L31.2354,35.1855 Z" id="Fill-10" fill="#1E3264"></path>
                            <path d="M37.961,29.0244 C37.612,28.3824 37.025,28.0894 36.42,28.0894 C35.832,28.0894 34.384,28.6394 34.384,31.3904 C34.384,33.6094 35.704,34.5444 36.677,34.5444 C37.135,34.5444 37.538,34.3974 37.961,34.1224 L37.961,29.0244 Z M41.297,35.1494 C40.858,35.2224 39.279,35.4424 37.961,35.8644 L37.961,34.7454 L36.842,35.4424 C36.292,35.7724 35.943,35.8454 35.741,35.8454 C34.2,35.8454 32.111,34.5444 32.111,31.8664 C32.111,29.3734 34.312,27.3384 37.044,27.3384 C37.228,27.3384 37.538,27.3744 37.961,27.4664 L37.961,25.1194 C37.961,24.0554 37.85,23.9634 36.658,23.8544 L36.658,23.3224 C37.759,23.1934 39.134,22.9374 39.977,22.6804 L39.977,33.3884 C39.977,34.3974 40.088,34.4704 40.821,34.5624 L41.297,34.6174 L41.297,35.1494 Z" id="Fill-12" fill="#1E3264"></path>
                            <path d="M43.8975,27.6494 C44.2275,26.2004 44.6655,25.0454 45.5295,24.1654 C46.4995,23.1934 47.6565,22.6804 48.3715,22.6804 C49.1955,22.6804 49.6365,23.1754 49.6185,23.5784 C49.5995,23.9824 49.2515,24.3664 49.0115,24.5134 C48.8475,24.6244 48.7015,24.6424 48.5365,24.4774 C48.0765,23.9454 47.6745,23.6334 47.3265,23.6334 C46.8485,23.6154 46.4275,24.1294 45.8595,27.6494 L47.9675,27.6494 L47.5815,28.3284 L45.6945,28.4924 C45.3805,30.2714 45.1635,31.6834 44.7035,33.7554 C44.0065,36.8174 43.2365,38.0834 42.0445,39.1464 C41.2745,39.8614 40.5405,40.1724 40.0085,40.1724 C39.4405,40.1724 38.8185,39.7694 38.8185,39.3294 C38.8185,38.9634 39.1285,38.5964 39.4215,38.3764 C39.5705,38.2654 39.6795,38.2474 39.7895,38.3574 C40.1365,38.6704 40.7805,38.9264 41.1275,38.9264 C41.4205,38.9264 41.6415,38.7794 41.7875,38.5044 C41.9335,38.2474 42.2285,37.5694 42.7595,34.4154 C43.1825,31.9034 43.4195,30.2714 43.7305,28.4744 L42.2475,28.4744 L42.1915,28.2914 L42.7785,27.6494 L43.8975,27.6494 Z" id="Fill-14" fill="#1E3264"></path>
                            <path d="M51.1387,34.9658 C51.9447,34.6358 52.8427,32.6918 52.8427,30.1978 C52.8427,28.7498 52.3117,28.1078 51.6147,28.1078 C51.4497,28.1078 51.2477,28.1448 51.0827,28.2178 C50.5147,28.4928 49.3607,30.0148 49.3607,32.9668 C49.3607,34.3418 49.9267,35.0578 50.6257,35.0578 C50.8437,35.0578 50.9737,35.0208 51.1387,34.9658 M47.2867,32.8938 C47.2867,30.5098 48.6087,28.7498 50.0377,27.9978 C50.7527,27.5938 51.5767,27.3378 52.2927,27.3378 C53.9987,27.3378 54.9157,28.4738 54.9157,30.2338 C54.9157,31.8298 54.2727,33.5718 52.9537,34.6718 C52.1647,35.3508 51.0277,35.8458 49.9267,35.8458 C47.8937,35.8458 47.2867,34.3238 47.2867,32.8938" id="Fill-16" fill="#1E3264"></path>
                            <path d="M59.1651,30.3081 C60.0631,28.6211 61.0551,27.3381 61.8251,27.3381 C62.1551,27.3381 62.4841,27.5391 62.6681,27.8141 C62.8701,28.1081 62.8331,28.4921 62.6121,28.8231 C62.4101,29.1531 62.2261,29.3541 62.0251,29.5191 C61.8601,29.6301 61.7141,29.6481 61.5861,29.5381 C61.3651,29.2991 61.1101,29.1901 60.8901,29.1901 C60.7061,29.1901 60.4851,29.2991 60.1011,29.8311 C59.6421,30.4731 59.1651,31.3161 58.9631,31.9401 C58.7071,33.0031 58.4321,34.3971 58.2481,35.4611 C57.6631,35.5341 56.9471,35.6801 56.4511,35.8281 L56.3051,35.6801 C56.7651,33.7551 57.2031,31.7381 57.5701,29.7761 C57.6821,29.1901 57.6821,28.9511 57.5331,28.9511 C57.3681,28.9511 56.7461,29.3181 56.3601,29.6851 L56.0841,29.2081 C57.1121,28.1441 58.3221,27.3381 58.9461,27.3381 C59.4601,27.3381 59.5681,28.0341 59.2761,29.4651 L59.0931,30.3081 L59.1651,30.3081 Z" id="Fill-18" fill="#1E3264"></path>
                            <path d="M68.7344,33.7734 C67.5244,35.1304 66.0944,35.8454 64.9574,35.8454 C63.6014,35.8454 62.7944,34.8744 62.7944,33.1134 C62.7944,31.5734 63.4714,29.8314 64.7554,28.6944 C65.5454,27.9974 66.8464,27.3374 67.8364,27.3374 C68.6804,27.3374 69.3774,27.7774 69.3774,28.3464 C69.3954,28.6764 69.1754,29.0794 68.6624,29.3734 C68.4784,29.5014 68.3144,29.4834 68.1664,29.2994 C67.7084,28.5844 67.2324,28.2724 66.7354,28.2724 C66.2964,28.2724 65.9114,28.6394 65.6004,29.2444 C65.1774,30.0514 64.8664,31.2984 64.8664,32.6184 C64.8664,33.9384 65.3244,34.5254 66.0764,34.5254 C66.9194,34.5254 67.9824,33.7184 68.4224,33.2784 L68.7344,33.7734 Z" id="Fill-20" fill="#1E3264"></path>
                            <path d="M73.499,28.3462 C73.058,28.6212 72.252,29.5932 71.994,31.4992 C74.195,30.8582 74.892,30.0702 74.892,29.1342 C74.892,28.4372 74.469,28.1442 74.121,28.1442 C73.919,28.1442 73.682,28.2182 73.499,28.3462 L73.499,28.3462 Z M76.213,33.6452 C74.58,35.3502 73.188,35.8452 72.068,35.8452 C71.059,35.8452 69.887,35.2952 69.887,33.1322 C69.887,31.4082 70.657,29.5382 72.05,28.4562 C72.802,27.8692 73.956,27.3382 74.873,27.3382 C76.066,27.3382 76.67,28.0522 76.67,28.8772 C76.67,30.7482 73.735,31.6832 71.922,32.1602 C71.903,32.3622 71.903,32.5272 71.903,32.6732 C71.903,33.6272 72.233,34.5252 73.223,34.5252 C73.956,34.5252 75.001,34.0122 75.883,33.1502 L76.213,33.6452 Z" id="Fill-22" fill="#1E3264"></path>
                        </g>
                    </g>
                </g>
            </g>
        </g>
    </g>
</svg>