<?xml version="1.0" encoding="UTF-8"?>
<svg width="106px" height="14px" viewBox="0 0 106 14" version="1.1" xmlns="http://www.w3.org/2000/svg" xmlns:xlink="http://www.w3.org/1999/xlink">
    <!-- Generator: Sketch 51.1 (57501) - http://www.bohemiancoding.com/sketch -->
    <title>javastar dark</title>
    <desc>Created with Sketch.</desc>
    <defs>
        <polygon id="path-1" points="0.0004 14 9.1034 14 9.1034 0.7584 0.0004 0.7584 0.0004 14"></polygon>
    </defs>
    <g id="Page-1" stroke="none" stroke-width="1" fill="none" fill-rule="evenodd">
        <g id="O-Book" transform="translate(-1085.000000, -833.000000)">
            <g id="Published-on" transform="translate(809.000000, 710.000000)">
                <g id="Company-Social-Proof" transform="translate(0.000000, 44.000000)">
                    <g id="javastar-dark" transform="translate(276.000000, 78.000000)">
                        <g id="Page-1">
                            <g id="Group-3" transform="translate(0.000000, 0.531500)">
                                <mask id="mask-2" fill="white">
                                    <use xlink:href="#path-1"></use>
                                </mask>
                                <g id="Clip-2"></g>
                                <path d="M7.8934,12.6654 C7.0864,13.5554 5.8204,14.0004 4.0964,14.0004 C3.3104,14.0004 2.5514,13.9134 1.8204,13.7414 C1.0894,13.5694 0.4824,13.3444 0.0004,13.0694 L0.8484,9.9244 C1.3034,10.1584 1.7414,10.3414 2.1624,10.4724 C2.5824,10.6034 2.9724,10.6684 3.3314,10.6684 C3.9654,10.6684 4.4074,10.5074 4.6554,10.1824 C4.9034,9.8584 5.0274,9.2964 5.0274,8.4964 L5.0274,0.7584 L9.1034,0.7584 L9.1034,8.8064 C9.1034,10.4894 8.7004,11.7754 7.8934,12.6654" id="Fill-1" fill="#1E3264" mask="url(#mask-2)"></path>
                            </g>
                            <path d="M17.835,4.2065 L16.387,8.7385 L19.201,8.7385 L17.835,4.2065 Z M24.828,14.2205 L20.794,14.2205 L19.987,11.8005 L15.601,11.8005 L14.835,14.2205 L10.821,14.2205 L15.269,1.2895 L20.463,1.2895 L24.828,14.2205 Z" id="Fill-4" fill="#1E3264"></path>
                            <polygon id="Fill-6" fill="#1E3264" points="33.8291 14.221 28.6561 14.221 24.4761 1.29 28.6971 1.29 31.2631 10.352 33.8291 1.29 38.0701 1.29"></polygon>
                            <path d="M44.7326,4.2065 L43.2846,8.7385 L46.0986,8.7385 L44.7326,4.2065 Z M51.7266,14.2205 L47.6916,14.2205 L46.8846,11.8005 L42.4986,11.8005 L41.7326,14.2205 L37.7186,14.2205 L42.1676,1.2895 L47.3606,1.2895 L51.7266,14.2205 Z" id="Fill-8" fill="#1E3264"></path>
                            <path d="M58.4917,11.2413 C58.9607,11.2413 59.3367,11.1863 59.6187,11.0763 C59.9017,10.9653 60.0437,10.7733 60.0437,10.4963 C60.0437,10.3453 59.9877,10.2143 59.8777,10.1033 C59.7677,9.9933 59.6087,9.8933 59.4017,9.8033 C59.1947,9.7143 58.9397,9.6283 58.6357,9.5453 C58.3327,9.4623 57.9947,9.3663 57.6227,9.2553 C57.1537,9.1173 56.6637,8.9523 56.1537,8.7583 C55.6427,8.5653 55.1777,8.3133 54.7577,8.0033 C54.3357,7.6933 53.9917,7.3103 53.7227,6.8553 C53.4537,6.3993 53.3187,5.8413 53.3187,5.1793 C53.3187,3.9103 53.7607,2.8963 54.6437,2.1383 C55.5257,1.3793 56.8497,1.0003 58.6157,1.0003 C59.7747,1.0003 60.7777,1.1103 61.6257,1.3303 C62.4747,1.5523 63.2087,1.8203 63.8297,2.1383 L63.1877,5.4693 C62.4567,5.1103 61.6847,4.8243 60.8717,4.6103 C60.0567,4.3963 59.3127,4.2893 58.6357,4.2893 C58.2367,4.2893 57.9297,4.3383 57.7157,4.4343 C57.5017,4.5313 57.3947,4.7103 57.3947,4.9723 C57.3947,5.1243 57.4677,5.2593 57.6117,5.3753 C57.7577,5.4933 57.9467,5.5973 58.1807,5.6863 C58.4157,5.7763 58.6847,5.8653 58.9877,5.9553 C59.2917,6.0453 59.6017,6.1313 59.9197,6.2143 C60.4297,6.3513 60.9367,6.5213 61.4397,6.7203 C61.9437,6.9203 62.3917,7.1733 62.7847,7.4763 C63.1777,7.7793 63.4987,8.1483 63.7467,8.5833 C63.9957,9.0173 64.1197,9.5453 64.1197,10.1663 C64.1197,10.8143 63.9987,11.4073 63.7567,11.9453 C63.5157,12.4823 63.1567,12.9413 62.6807,13.3213 C62.2057,13.7003 61.6117,13.9963 60.9027,14.2113 C60.1917,14.4243 59.3677,14.5313 58.4297,14.5313 C57.3537,14.5313 56.3467,14.4173 55.4087,14.1903 C54.4707,13.9623 53.7057,13.6903 53.1117,13.3723 L53.7327,10.0413 C54.4357,10.3863 55.1987,10.6733 56.0187,10.9003 C56.8397,11.1283 57.6637,11.2413 58.4917,11.2413" id="Fill-10" fill="#1E3264"></path>
                            <polygon id="Fill-12" fill="#1E3264" points="73.7196 4.6204 73.7196 14.2214 69.6436 14.2214 69.6436 4.6204 65.7336 4.6204 65.7336 1.2894 77.6306 1.2894 77.6306 4.6204"></polygon>
                            <path d="M84.4375,4.2065 L82.9885,8.7385 L85.8035,8.7385 L84.4375,4.2065 Z M91.4315,14.2205 L87.3965,14.2205 L86.5895,11.8005 L82.2035,11.8005 L81.4375,14.2205 L77.4235,14.2205 L81.8715,1.2895 L87.0645,1.2895 L91.4315,14.2205 Z" id="Fill-14" fill="#1E3264"></path>
                            <path d="M98.879,7.4758 C99.5,7.4078 99.945,7.2448 100.214,6.9898 C100.483,6.7348 100.617,6.3448 100.617,5.8208 C100.617,5.3388 100.465,4.9798 100.162,4.7448 C99.859,4.5108 99.335,4.3928 98.589,4.3928 L97.472,4.3928 L97.472,7.4968 L98.879,7.4758 Z M97.555,14.2208 L93.479,14.2208 L93.479,1.2898 L99.335,1.2898 C101.141,1.2898 102.51,1.6728 103.442,2.4378 C104.373,3.2038 104.838,4.2348 104.838,5.5308 C104.838,6.3588 104.634,7.0998 104.227,7.7548 C103.821,8.4108 103.182,8.9108 102.314,9.2548 L105.521,14.2208 L101.01,14.2208 L98.693,10.2898 L97.555,10.3938 L97.555,14.2208 Z" id="Fill-16" fill="#1E3264"></path>
                        </g>
                    </g>
                </g>
            </g>
        </g>
    </g>
</svg>