<?xml version="1.0" encoding="UTF-8"?>
<svg width="81px" height="19px" viewBox="0 0 81 19" version="1.1" xmlns="http://www.w3.org/2000/svg" xmlns:xlink="http://www.w3.org/1999/xlink">
    <!-- Generator: Sketch 51.1 (57501) - http://www.bohemiancoding.com/sketch -->
    <title>lifebook dark</title>
    <desc>Created with Sketch.</desc>
    <defs>
        <polygon id="path-1" points="9.75 0.68 0.822 0.68 0.822 18.7436 9.75 18.7436 9.75 0.68"></polygon>
        <polygon id="path-3" points="0.6242 13 11.0112 13 11.0112 0.0273 0.6242 0.0273 0.6242 13"></polygon>
        <polygon id="path-5" points="0.6734 19 11.7264 19 11.7264 0.6804 0.6734 0.6804 0.6734 19"></polygon>
    </defs>
    <g id="Page-1" stroke="none" stroke-width="1" fill="none" fill-rule="evenodd">
        <g id="O-Book" transform="translate(-963.000000, -831.000000)">
            <g id="Published-on" transform="translate(809.000000, 710.000000)">
                <g id="Company-Social-Proof" transform="translate(0.000000, 44.000000)">
                    <g id="lifebook-dark" transform="translate(154.000000, 76.000000)">
                        <g id="Page-1">
                            <polygon id="Fill-1" fill="#1E3264" points="3.6855 1.0004 -0.0005 1.5114 -0.0005 19.0644 3.6855 19.0644"></polygon>
                            <path d="M5.986,5.0429 L9.672,5.0429 L9.672,1.1279 L5.986,1.1279 L5.986,5.0429 Z M5.986,19.0639 L9.672,19.0639 L9.672,6.6029 L5.986,6.6029 L5.986,19.0639 Z" id="Fill-2" fill="#1E3264"></path>
                            <g id="Group-18" transform="translate(10.000000, 0.319900)">
                                <g id="Group-5">
                                    <mask id="mask-2" fill="white">
                                        <use xlink:href="#path-1"></use>
                                    </mask>
                                    <g id="Clip-4"></g>
                                    <path d="M9.291,3.9296 C8.779,3.8266 8.088,3.7506 7.652,3.7506 C6.476,3.7506 6.399,4.2626 6.399,5.0806 L6.399,6.5396 L9.342,6.5396 L9.086,9.5586 L6.399,9.5586 L6.399,18.7436 L2.714,18.7436 L2.714,9.5586 L0.822,9.5586 L0.822,6.5396 L2.714,6.5396 L2.714,4.6716 C2.714,2.1136 3.917,0.6796 6.937,0.6796 C7.985,0.6796 8.753,0.8336 9.75,1.0386 L9.291,3.9296 Z" id="Fill-3" fill="#1E3264" mask="url(#mask-2)"></path>
                                </g>
                                <g id="Group-8" transform="translate(9.000000, 6.000000)">
                                    <mask id="mask-4" fill="white">
                                        <use xlink:href="#path-3"></use>
                                    </mask>
                                    <g id="Clip-7"></g>
                                    <path d="M7.5312,4.5053 C7.5312,3.6353 7.2752,2.9193 5.9972,2.9193 C4.7162,2.9193 4.3072,3.6353 4.3072,4.5053 L4.3072,5.0423 L7.5312,5.0423 L7.5312,4.5053 Z M4.3072,7.8053 L4.3072,8.1643 C4.3072,9.5963 4.8712,9.9813 6.5582,9.9813 C7.7112,9.9813 9.2452,9.7753 10.3472,9.4433 L10.8842,12.2063 C9.7582,12.6163 7.9402,13.0003 6.2012,13.0003 C2.1582,13.0003 0.6242,11.0043 0.6242,7.9333 L0.6242,5.0173 C0.6242,2.3303 1.8252,0.0273 5.9702,0.0273 C10.1152,0.0273 11.0112,2.4843 11.0112,5.1953 L11.0112,7.8053 L4.3072,7.8053 Z" id="Fill-6" fill="#1E3264" mask="url(#mask-4)"></path>
                                </g>
                                <g id="Group-11" transform="translate(21.000000, 0.000000)">
                                    <mask id="mask-6" fill="white">
                                        <use xlink:href="#path-5"></use>
                                    </mask>
                                    <g id="Clip-10"></g>
                                    <path d="M4.3574,15.7504 C4.8944,15.8014 5.3564,15.8014 5.8674,15.8014 C7.7094,15.8014 8.0434,14.9574 8.0434,13.7804 L8.0434,10.5564 C8.0434,9.7374 7.6834,9.2264 6.7114,9.2264 C5.9184,9.2264 5.0474,9.5584 4.3574,9.9164 L4.3574,15.7504 Z M5.7384,19.0004 C4.4084,19.0004 2.3874,18.8714 0.6734,18.5904 L0.6734,1.1914 L4.3574,0.6804 L4.3574,6.7184 C5.3564,6.3344 6.5334,6.0274 7.8874,6.0274 C10.6524,6.0274 11.7264,7.7424 11.7264,10.5304 L11.7264,13.7544 C11.7264,16.7224 10.8824,19.0004 5.7384,19.0004 L5.7384,19.0004 Z" id="Fill-9" fill="#1E3264" mask="url(#mask-6)"></path>
                                </g>
                                <path d="M41.3222,14.062 L41.3222,10.966 C41.3222,9.789 40.7092,9.124 39.3772,9.124 C38.0472,9.124 37.4332,9.789 37.4332,10.966 L37.4332,14.062 C37.4332,15.239 38.0472,15.904 39.3772,15.904 C40.7092,15.904 41.3222,15.239 41.3222,14.062 M33.7482,13.959 L33.7482,11.068 C33.7482,8.509 34.9512,6.027 39.3772,6.027 C43.8042,6.027 45.0082,8.509 45.0082,11.068 L45.0082,13.959 C45.0082,16.518 43.8042,19 39.3772,19 C34.9512,19 33.7482,16.518 33.7482,13.959" id="Fill-12" fill="#1E3264"></path>
                                <path d="M53.6025,14.062 L53.6025,10.966 C53.6025,9.789 52.9885,9.124 51.6585,9.124 C50.3285,9.124 49.7125,9.789 49.7125,10.966 L49.7125,14.062 C49.7125,15.239 50.3285,15.904 51.6585,15.904 C52.9885,15.904 53.6025,15.239 53.6025,14.062 M46.0295,13.959 L46.0295,11.068 C46.0295,8.509 47.2305,6.027 51.6585,6.027 C56.0835,6.027 57.2865,8.509 57.2865,11.068 L57.2865,13.959 C57.2865,16.518 56.0835,19 51.6585,19 C47.2305,19 46.0295,16.518 46.0295,13.959" id="Fill-14" fill="#1E3264"></path>
                                <path d="M66.292,6.2832 L70.231,6.2832 L66.956,12.4752 L70.385,18.7442 L66.445,18.7442 L63.119,12.4752 L66.292,6.2832 Z M58.948,18.7442 L58.948,1.1922 L62.633,0.6802 L62.633,18.7442 L58.948,18.7442 Z" id="Fill-16" fill="#1E3264"></path>
                            </g>
                        </g>
                    </g>
                </g>
            </g>
        </g>
    </g>
</svg>