<?xml version="1.0" encoding="UTF-8"?>
<svg width="111px" height="18px" viewBox="0 0 111 18" version="1.1" xmlns="http://www.w3.org/2000/svg" xmlns:xlink="http://www.w3.org/1999/xlink">
    <!-- Generator: Sketch 51.1 (57501) - http://www.bohemiancoding.com/sketch -->
    <title>mailbanana dark</title>
    <desc>Created with Sketch.</desc>
    <defs>
        <polygon id="path-1" points="19.4712 0.305 0.1772 0.305 0.1772 17.7726 19.4712 17.7726 19.4712 0.305"></polygon>
        <polygon id="path-3" points="0.00037694954 18 46.1594759 18 46.1594759 0.9565 0.00037694954 0.9565"></polygon>
    </defs>
    <g id="Page-1" stroke="none" stroke-width="1" fill="none" fill-rule="evenodd">
        <g id="O-Book" transform="translate(-809.000000, -768.000000)">
            <g id="Published-on" transform="translate(809.000000, 710.000000)">
                <g id="Company-Social-Proof" transform="translate(0.000000, 44.000000)">
                    <g id="mailbanana-dark" transform="translate(0.000000, 13.000000)">
                        <g id="Page-1">
                            <g id="Group-3" transform="translate(46.000000, 0.695300)">
                                <mask id="mask-2" fill="white">
                                    <use xlink:href="#path-1"></use>
                                </mask>
                                <g id="Clip-2"></g>
                                <path d="M11.9652,1.5886 C9.9002,1.5886 7.8072,1.8396 5.7712,2.2586 C6.0492,2.3696 6.1892,2.6766 6.1892,2.9556 C6.1892,4.7416 5.9942,6.5546 5.8822,8.3406 C7.3052,7.9786 8.8682,7.8946 10.3472,7.8946 C11.0442,7.8946 11.7422,7.8946 12.4112,8.0066 C13.9182,7.3916 17.8252,5.7746 17.8252,3.8766 C17.8252,1.8396 13.4162,1.5886 11.9652,1.5886 M12.3002,9.4296 C10.0962,10.0706 8.0312,10.9076 5.7152,11.1316 L5.7152,11.8846 C5.7152,12.8616 5.7712,13.8106 5.8542,14.7866 C6.0492,14.6756 6.2732,14.6186 6.4962,14.6186 C7.4172,14.6186 7.5012,14.8146 7.8352,15.5956 C8.0862,16.1256 9.6772,16.3766 10.2072,16.3766 C12.4112,16.3766 15.2302,14.7306 15.2302,12.2756 C15.2302,10.5456 13.9462,9.5406 12.3002,9.4296 M14.5042,8.5366 C15.9832,9.1776 16.8482,10.5456 16.8482,12.1356 C16.8482,15.4836 12.9972,17.7166 9.9842,17.7166 C8.8402,17.7166 6.7752,17.1306 5.9382,16.3486 L5.9382,16.7116 C5.9382,17.1856 5.6592,17.7726 5.1292,17.7726 C4.6262,17.7726 4.4592,17.2986 4.3752,16.8796 C4.0132,15.0376 4.0962,12.8896 4.0962,10.9916 C3.7062,10.8526 3.3992,10.5176 3.3992,10.0706 C3.3992,9.5406 3.8172,9.1216 4.2642,8.8716 C4.4312,7.1416 4.5432,4.6016 4.8502,2.9836 C4.9062,2.7606 4.9612,2.5656 5.1562,2.3976 C4.1512,2.6326 3.9292,2.7536 2.4092,3.4156 L2.4092,3.4996 C2.4372,4.1136 2.3072,4.4766 1.5162,4.5876 C0.8532,4.6806 0.1772,4.1966 0.1772,3.4716 C0.1772,2.8296 0.7072,2.3836 1.2092,2.1046 C4.6182,0.6036 7.2212,0.3046 11.6862,0.3046 C13.9742,0.3046 19.4712,0.5286 19.4712,3.7646 C19.4712,5.9696 16.2902,7.7826 14.5042,8.5366" id="Fill-1" fill="#1E3264" mask="url(#mask-2)"></path>
                            </g>
                            <path d="M66.7981,11.1849 C65.3751,11.1849 63.6171,14.0309 63.6171,15.3139 C63.6171,15.9839 64.0361,16.4869 64.7331,16.4869 C66.0171,16.4869 67.0491,14.6729 67.0491,13.5279 C67.0491,13.2219 66.9661,12.9149 66.9661,12.6079 C66.9661,12.1619 67.0491,11.6869 67.3001,11.3239 C67.1611,11.2409 66.9931,11.1849 66.7981,11.1849 L66.7981,11.1849 Z M73.4111,13.2219 C73.2161,15.0079 71.6251,17.1839 69.6441,17.1839 C68.7511,17.1839 68.0541,16.6539 67.6071,15.8999 C66.9661,16.9329 65.8771,17.9369 64.5941,17.9369 C63.1991,17.9369 62.1381,16.8209 62.1381,15.4539 C62.1381,13.2769 64.7331,9.6779 67.0771,9.6779 C67.7471,9.6779 68.6671,10.0689 68.6671,10.8499 C68.6671,11.0179 68.6121,11.1569 68.5281,11.2969 C68.6671,11.4359 68.7231,11.6309 68.7231,11.8269 C68.7231,12.3569 68.5561,12.8589 68.5561,13.3889 C68.5561,14.1699 68.7511,15.7889 69.7841,15.7889 C71.6531,15.7889 71.7931,12.4399 72.8531,12.4399 C73.2161,12.4399 73.4111,12.7479 73.4111,13.0539 L73.4111,13.2219 Z" id="Fill-4" fill="#1E3264"></path>
                            <path d="M82.7028,13.6405 C82.1728,15.1185 80.4708,17.9095 78.6848,17.9095 C76.0618,17.9095 76.7588,15.0075 76.3688,13.3615 C76.3408,13.2215 76.2848,13.0265 76.0898,13.0265 C74.9738,13.0265 72.9928,17.0725 72.2388,17.0725 C71.8758,17.0725 71.4018,16.8765 71.4018,16.4305 C71.4018,16.2075 71.5698,15.9565 71.7088,15.7605 C72.0438,15.3145 72.2108,13.3615 72.2108,12.8035 C72.2108,12.1895 71.9598,11.5475 71.9598,10.9615 C71.9598,10.4595 72.3508,10.0685 72.8528,10.0685 C73.9408,10.0685 73.7738,12.5515 73.7738,13.3055 C74.4438,12.5515 75.4478,11.5475 76.5358,11.5475 C79.0468,11.5475 77.1218,16.3745 78.9078,16.3745 C80.5268,16.3745 81.1678,12.6365 82.1728,12.6365 C82.5348,12.6365 82.7588,12.9145 82.7588,13.2775 C82.7588,13.3885 82.7308,13.5285 82.7028,13.6405" id="Fill-6" fill="#1E3264"></path>
                            <path d="M85.5209,11.1849 C84.0979,11.1849 82.3399,14.0309 82.3399,15.3139 C82.3399,15.9839 82.7589,16.4869 83.4559,16.4869 C84.7399,16.4869 85.7719,14.6729 85.7719,13.5279 C85.7719,13.2219 85.6889,12.9149 85.6889,12.6079 C85.6889,12.1619 85.7719,11.6869 86.0229,11.3239 C85.8839,11.2409 85.7169,11.1849 85.5209,11.1849 L85.5209,11.1849 Z M92.1339,13.2219 C91.9389,15.0079 90.3479,17.1839 88.3669,17.1839 C87.4739,17.1839 86.7769,16.6539 86.3299,15.8999 C85.6889,16.9329 84.5999,17.9369 83.3169,17.9369 C81.9219,17.9369 80.8609,16.8209 80.8609,15.4539 C80.8609,13.2769 83.4559,9.6779 85.7999,9.6779 C86.4699,9.6779 87.3899,10.0689 87.3899,10.8499 C87.3899,11.0179 87.3349,11.1569 87.2509,11.2969 C87.3899,11.4359 87.4459,11.6309 87.4459,11.8269 C87.4459,12.3569 87.2789,12.8589 87.2789,13.3889 C87.2789,14.1699 87.4739,15.7889 88.5069,15.7889 C90.3759,15.7889 90.5159,12.4399 91.5759,12.4399 C91.9389,12.4399 92.1339,12.7479 92.1339,13.0539 L92.1339,13.2219 Z" id="Fill-8" fill="#1E3264"></path>
                            <path d="M101.4256,13.6405 C100.8956,15.1185 99.1936,17.9095 97.4076,17.9095 C94.7846,17.9095 95.4816,15.0075 95.0916,13.3615 C95.0636,13.2215 95.0076,13.0265 94.8126,13.0265 C93.6966,13.0265 91.7156,17.0725 90.9616,17.0725 C90.5986,17.0725 90.1246,16.8765 90.1246,16.4305 C90.1246,16.2075 90.2926,15.9565 90.4316,15.7605 C90.7666,15.3145 90.9336,13.3615 90.9336,12.8035 C90.9336,12.1895 90.6826,11.5475 90.6826,10.9615 C90.6826,10.4595 91.0736,10.0685 91.5756,10.0685 C92.6636,10.0685 92.4966,12.5515 92.4966,13.3055 C93.1666,12.5515 94.1706,11.5475 95.2586,11.5475 C97.7696,11.5475 95.8446,16.3745 97.6306,16.3745 C99.2496,16.3745 99.8906,12.6365 100.8956,12.6365 C101.2576,12.6365 101.4816,12.9145 101.4816,13.2775 C101.4816,13.3885 101.4536,13.5285 101.4256,13.6405" id="Fill-10" fill="#1E3264"></path>
                            <path d="M104.2437,11.1849 C102.8207,11.1849 101.0627,14.0309 101.0627,15.3139 C101.0627,15.9839 101.4817,16.4869 102.1787,16.4869 C103.4627,16.4869 104.4947,14.6729 104.4947,13.5279 C104.4947,13.2219 104.4117,12.9149 104.4117,12.6079 C104.4117,12.1619 104.4947,11.6869 104.7457,11.3239 C104.6067,11.2409 104.4387,11.1849 104.2437,11.1849 L104.2437,11.1849 Z M110.8567,13.2219 C110.6617,15.0079 109.0707,17.1839 107.0897,17.1839 C106.1967,17.1839 105.4997,16.6539 105.0527,15.8999 C104.4117,16.9329 103.3227,17.9369 102.0397,17.9369 C100.6447,17.9369 99.5837,16.8209 99.5837,15.4539 C99.5837,13.2769 102.1787,9.6779 104.5227,9.6779 C105.1927,9.6779 106.1127,10.0689 106.1127,10.8499 C106.1127,11.0179 106.0577,11.1569 105.9737,11.2969 C106.1127,11.4359 106.1687,11.6309 106.1687,11.8269 C106.1687,12.3569 106.0017,12.8589 106.0017,13.3889 C106.0017,14.1699 106.1967,15.7889 107.2297,15.7889 C109.0987,15.7889 109.2387,12.4399 110.2987,12.4399 C110.6617,12.4399 110.8567,12.7479 110.8567,13.0539 L110.8567,13.2219 Z" id="Fill-12" fill="#1E3264"></path>
                            <path d="M28.2246,12.1773 L28.2246,12.1763 L28.2246,12.1773 Z" id="Fill-14" fill="#1E3264"></path>
                            <path d="M94.7552,12.5718 L94.7552,12.5708 L94.7552,12.5718 Z" id="Fill-16" fill="#1E3264"></path>
                            <g id="Group-20" transform="translate(0.000000, 0.695300)">
                                <mask id="mask-4" fill="white">
                                    <use xlink:href="#path-3"></use>
                                </mask>
                                <g id="Clip-19"></g>
                                <path d="M29.5494,12.4615 C29.1064,14.2435 28.2574,16.3945 26.7264,16.5175 C26.6834,16.5205 26.6414,16.5235 26.6014,16.5235 C25.9664,16.5235 25.6094,16.1075 25.5424,15.2865 C25.4584,14.2605 25.9014,13.0585 26.6704,12.2235 C27.1594,11.6915 27.7114,11.3995 28.2244,11.3995 L28.2354,11.3995 C28.8824,11.4045 29.3364,11.9245 29.5454,12.4095 L29.5564,12.4345 L29.5494,12.4615 Z M43.5914,2.4955 L43.6124,2.4945 C43.7574,2.4945 43.8844,2.5675 43.9894,2.7105 C44.4924,3.3895 44.5004,5.8695 43.6354,8.6905 C43.1414,10.3025 42.4774,11.8265 41.7154,13.0955 L41.5934,13.2975 L41.5624,13.0635 C41.4734,12.3815 41.4284,11.6705 41.3974,11.0655 C41.1774,6.8015 42.4674,2.5535 43.5914,2.4955 L43.5914,2.4955 Z M31.9294,17.2845 C33.4094,17.1655 34.5834,15.1535 35.0194,14.2935 L35.1314,14.0715 L35.1744,14.3165 C35.3834,15.5255 36.0414,17.5575 38.0994,17.5735 L38.1164,17.5735 C39.0064,17.5735 40.0164,17.0295 41.0374,15.9995 L41.1124,15.9245 L41.1664,16.0155 C41.8534,17.1645 42.7754,17.7745 43.7564,17.7245 C45.2014,17.6495 46.0784,16.6265 46.1554,15.9155 C46.1744,15.7335 46.1264,15.5635 46.0234,15.4475 C45.8934,15.3035 45.7054,15.2865 45.5664,15.4195 L45.5004,15.4815 C45.1644,15.8045 44.5374,16.4065 43.8544,16.4415 C43.0184,16.4825 42.4004,15.9825 42.0004,14.9515 L41.9844,14.9085 L42.0124,14.8715 C44.3114,11.8645 45.9244,7.2775 45.7654,4.2005 C45.6914,2.7765 45.2774,1.0785 43.7224,1.0785 C43.6844,1.0785 43.6454,1.0795 43.6064,1.0815 C43.0104,1.1125 42.4684,1.3965 41.9954,1.9255 C40.5524,3.5395 39.7974,7.5135 40.0714,12.0495 C40.1284,12.9915 40.2914,13.8725 40.5574,14.6665 L40.5724,14.7105 L40.5424,14.7465 C39.6894,15.7425 38.8474,16.2925 38.1724,16.2925 C36.5474,16.2925 36.6024,13.5675 36.7304,11.3085 C36.7584,10.8215 36.7994,10.5105 36.6554,10.3345 C36.5524,10.2085 36.3804,10.1455 36.1294,10.1435 L36.0994,10.1435 C35.5214,10.1435 35.4004,10.2625 35.1044,11.1205 C34.4894,12.9035 33.2744,15.8955 32.0524,15.8955 C31.7134,15.8925 31.4554,15.7765 31.2784,15.5505 C30.6854,14.7945 31.1354,12.9065 31.4974,11.3905 C31.5624,11.1175 31.6244,10.8555 31.6774,10.6135 C31.7574,10.2535 31.7324,9.9915 31.6054,9.8325 C31.4784,9.6745 31.2234,9.6105 30.8874,9.6365 C30.3644,9.6785 30.0294,9.8975 29.8684,10.8935 L29.8354,11.1005 L29.7144,10.9525 C29.4854,10.6155 29.0394,10.2135 28.2124,10.2135 C28.1404,10.2135 28.0654,10.2165 27.9874,10.2225 C27.1044,10.2945 26.0994,10.9105 25.3634,11.8275 C24.5044,12.8995 24.0944,14.2565 24.2084,15.6475 C24.2144,15.7215 24.2254,15.7915 24.2354,15.8625 L24.2414,15.9015 L24.2154,15.9305 C23.7014,16.4905 23.1774,16.7745 22.6584,16.7745 C21.8584,16.7685 21.3984,16.1725 21.3984,15.1815 C21.3984,13.5135 22.5294,8.4835 22.5294,6.6625 C22.5294,4.7245 21.6654,3.6695 20.1664,3.6575 L20.1434,3.6575 C17.9544,3.6575 16.2474,6.1425 14.6144,11.2545 C14.4654,11.7225 14.3024,12.2625 14.1624,12.7305 L13.9334,13.4995 L14.0014,12.7005 C14.1534,10.9195 14.2574,9.1875 14.3114,7.5505 C14.3924,5.0805 14.0584,3.4905 13.2904,2.6905 C12.8754,2.2585 12.3274,2.0465 11.6134,2.0405 L11.5944,2.0405 C8.9154,2.0405 7.6314,6.5595 6.6974,9.7475 C6.4154,10.7105 5.8584,12.8815 5.4874,14.3655 L5.7074,14.0085 C5.8724,12.1395 6.3494,7.4575 6.3184,4.9185 C6.2844,2.1935 5.3774,0.9715 3.3764,0.9565 L3.3514,0.9565 C2.2834,0.9565 1.5414,1.4875 1.1074,1.9335 C0.4114,2.6485 -0.0236,3.6945 0.0014,4.5965 C0.0154,5.1455 0.3524,5.6345 0.6074,5.6345 C0.7744,5.6345 0.8664,5.4125 0.9064,5.2805 C1.5254,3.2335 2.3264,2.2385 3.3544,2.2385 C3.7814,2.2415 4.0984,2.3675 4.3364,2.6225 C5.1394,3.4845 4.9934,5.8115 4.7284,10.0365 C4.6434,11.3975 4.5464,12.9405 4.4644,14.6955 C4.4504,14.9965 4.4314,15.2875 4.4134,15.5635 C4.3354,16.7825 4.2734,17.7455 4.7364,17.8175 C5.3374,17.9115 5.7284,17.6665 5.9294,17.0715 C6.2264,16.1885 6.8924,13.7745 8.1814,9.3635 C9.4184,5.1305 10.3524,3.5895 11.5484,3.5895 C12.9294,3.5895 13.0324,5.9615 12.7794,10.9665 C12.7254,12.0275 12.6534,13.2285 12.5984,14.5365 C12.5904,14.7205 12.5814,14.8985 12.5734,15.0705 C12.5194,16.1535 12.4784,17.0075 12.7874,17.3355 C12.8834,17.4375 13.0144,17.4875 13.1884,17.4885 C13.7874,17.4885 13.9674,16.9635 14.2654,16.0935 C14.3184,15.9405 14.3744,15.7765 14.4364,15.6045 C16.4884,9.9445 18.0054,5.0335 20.0414,5.0335 C20.6524,5.0335 21.1274,5.5295 21.1274,6.4975 C21.1274,8.7305 20.0354,13.0465 20.0354,15.2335 C20.0354,16.0175 20.2614,16.7215 20.6874,17.2155 C21.1254,17.7235 21.7374,17.9945 22.4574,18.0005 L22.4734,18.0005 C23.1544,18.0005 23.8644,17.6695 24.5834,17.0165 L24.6514,16.9555 L24.7054,17.0285 C25.1794,17.6645 25.9434,18.0065 26.7684,17.9435 C28.0334,17.8445 29.0954,16.7185 29.4904,15.6555 L29.5674,15.4475 L29.6444,15.6555 C29.9374,16.4435 30.5724,17.3935 31.9294,17.2845 L31.9294,17.2845 Z" id="Fill-18" fill="#1E3264" mask="url(#mask-4)"></path>
                            </g>
                            <path d="M36.6518,6.6235 C36.0868,6.6235 35.6298,7.0685 35.6258,7.6165 C35.6218,8.1675 36.0748,8.6195 36.6368,8.6245 L36.6448,8.7065 L36.6448,8.6245 C37.2018,8.6245 37.6578,8.1795 37.6618,7.6315 C37.6668,7.0805 37.2138,6.6275 36.6518,6.6235" id="Fill-23" fill="#1E3264"></path>
                        </g>
                    </g>
                </g>
            </g>
        </g>
    </g>
</svg>