<?xml version="1.0" encoding="UTF-8"?>
<svg width="84px" height="33px" viewBox="0 0 84 33" version="1.1" xmlns="http://www.w3.org/2000/svg" xmlns:xlink="http://www.w3.org/1999/xlink">
    <!-- Generator: Sketch 51.1 (57501) - http://www.bohemiancoding.com/sketch -->
    <title>powerbull dark</title>
    <desc>Created with Sketch.</desc>
    <defs>
        <polygon id="path-1" points="1.35525272e-20 0.9167 1.35525272e-20 11.7227 8.1338 11.7227 8.1338 0.9167 0 0.9167"></polygon>
        <polygon id="path-3" points="0 32.7548 83.86 32.7548 83.86 -0.0002 0 -0.0002"></polygon>
    </defs>
    <g id="Page-1" stroke="none" stroke-width="1" fill="none" fill-rule="evenodd">
        <g id="O-Book" transform="translate(-809.000000, -823.000000)">
            <g id="Published-on" transform="translate(809.000000, 710.000000)">
                <g id="Company-Social-Proof" transform="translate(0.000000, 44.000000)">
                    <g id="powerbull-dark" transform="translate(0.000000, 69.000000)">
                        <g id="Page-1">
                            <path d="M51.7144,17.4262 L51.7134,17.4262 C52.5634,18.0392 53.5604,18.6372 54.6154,18.7662 C57.4124,18.9702 57.6314,16.0782 57.6314,16.0782 C57.8754,14.4852 57.1264,13.6072 57.1264,13.6072 C56.6844,13.1422 56.5524,12.3882 56.5524,12.3882 C56.5834,11.5952 57.4634,11.8732 57.4634,11.8732 C60.5924,13.4542 61.1644,10.2352 61.1644,10.2352 C60.0084,10.7832 58.0634,10.2612 58.0634,10.2612 C56.6324,9.5992 55.9174,10.4882 55.9174,10.4882 C54.9804,11.3152 55.6014,12.4402 55.6014,12.4402 C56.3484,13.8682 56.6304,15.0262 56.6304,15.0262 C56.9224,17.1652 55.5474,17.5992 55.5474,17.5992 C52.8884,18.4412 51.1314,14.2962 51.1314,14.2962 C50.6154,12.2842 48.6644,11.5722 48.6644,11.5722 C47.5924,10.8822 47.2904,10.0402 47.2904,10.0402 C46.8574,7.7852 45.0784,7.1702 45.0784,7.1702 C44.3574,6.7062 44.4044,6.4272 44.4044,6.4272 C44.2364,4.7162 42.4444,3.5722 42.4444,3.5722 C41.6344,2.8892 40.8944,1.5982 40.8944,1.5982 C39.9154,-0.4598 36.9184,0.0582 36.9184,0.0582 C36.2864,0.3002 35.5164,0.4362 35.5164,0.4362 C33.8294,0.7072 32.9244,1.1032 32.9244,1.1032 C32.2704,1.3362 31.3254,1.7782 31.3254,1.7782 C30.2244,2.0702 29.2594,2.7872 29.2594,2.7872 C28.0804,3.3232 27.5994,4.5152 27.5994,4.5152 C27.4824,4.7592 26.8124,5.5252 26.8124,5.5252 C26.6374,5.7302 25.9224,6.6252 25.9224,6.6252 C25.1844,7.0112 24.6274,8.0622 24.6274,8.0622 C23.3274,8.3062 22.5804,9.1202 22.5804,9.1202 C21.7784,9.6002 20.6174,9.5022 20.6174,9.5022 C21.6504,10.5472 23.1484,9.6602 23.1484,9.6602 C23.6974,9.1722 24.7184,8.8422 24.7184,8.8422 C25.1244,8.7012 25.2044,8.8562 25.2044,8.8562 C25.3814,9.0402 25.0084,9.2382 25.0084,9.2382 C23.8274,9.8052 23.4554,10.4462 23.4554,10.4462 C22.7114,11.0542 21.0334,10.9482 21.0334,10.9482 C22.6044,12.1872 24.3984,11.2582 24.3984,11.2582 C24.7214,10.9842 24.9994,11.5632 24.9994,11.5632 C25.2734,12.5092 26.2144,12.8432 26.2144,12.8432 C26.5364,12.9262 26.7524,13.0622 26.7524,13.0622 C27.1134,13.2162 27.7044,13.8182 27.7044,13.8182 C27.8584,13.9752 28.3444,14.4022 28.3444,14.4022 C28.6514,14.7092 28.7934,14.7792 28.7934,14.7792 C28.9504,14.8042 28.9974,14.9022 28.9974,14.9022 C29.2434,15.1212 29.5474,14.9582 29.5474,14.9582 C29.7734,14.8532 30.1114,14.3472 30.1114,14.3472 C30.3104,13.8622 30.0794,13.3172 30.0794,13.3172 C30.0084,13.0682 30.0594,13.0692 30.0594,13.0692 C30.2914,12.9502 30.6034,13.3312 30.6034,13.3312 C30.8484,13.5802 30.9154,13.0762 30.9154,13.0762 C31.0764,12.5992 30.6324,11.8042 30.6324,11.8042 C30.4924,11.5452 30.5974,11.2702 30.5974,11.2702 C30.7284,10.9252 30.6184,10.2462 30.6184,10.2462 C30.5524,9.9532 30.8134,10.1702 30.8134,10.1702 C31.0104,10.3432 32.1044,11.0882 32.1044,11.0882 C32.3594,11.5572 33.4404,11.7382 33.4404,11.7382 C32.9614,9.6882 34.4124,8.6072 34.4124,8.6072 C34.0944,9.2462 33.9724,10.4702 33.9724,10.4702 C33.8174,11.4952 34.1824,11.8332 34.1824,11.8332 C34.2874,12.0182 35.0794,12.6522 35.0794,12.6522 C35.3694,12.9612 35.0074,13.1442 35.0074,13.1442 C34.8684,13.1612 34.4754,13.4642 34.4754,13.4652 C34.2394,13.7192 33.1214,14.4102 33.1214,14.4102 C32.7414,14.5022 32.6214,14.9142 32.6214,14.9142 C32.4204,15.2702 32.4144,16.1142 32.4144,16.1142 C32.4004,16.3442 32.3074,16.2622 32.3074,16.2622 C32.2504,16.2272 32.0724,15.9612 32.0724,15.9612 C31.9704,15.8062 31.9814,15.3392 31.9814,15.3392 C31.9784,15.2082 31.9484,14.9292 31.9484,14.9292 C31.8964,14.7642 32.0014,14.4822 32.0014,14.4822 C32.1684,14.0872 32.8594,13.6742 32.8594,13.6742 C33.3534,13.4002 34.2514,12.5732 34.2514,12.5732 L33.6894,12.2482 C33.4434,12.2662 33.1334,12.4532 33.1334,12.4532 L32.2004,13.2642 C32.0784,13.4232 31.7284,13.5552 31.7284,13.5552 C31.3414,13.7302 31.2574,14.0472 31.2574,14.0472 C31.0954,14.3302 31.1174,14.6272 31.1174,14.6272 L31.2694,15.8682 C31.2844,16.4532 31.9434,16.5992 31.9434,16.5992 C32.3364,16.6492 32.6484,17.0942 32.6484,17.0942 C32.8664,17.5172 34.4844,19.1972 34.4844,19.1972 C34.7804,19.6252 35.2854,19.6912 35.2854,19.6912 C35.8264,19.7592 36.3424,19.3982 36.3424,19.3982 C37.1234,18.5532 37.5284,19.0752 37.5284,19.0752 C37.8834,19.3212 38.0664,19.0682 38.0664,19.0682 C38.3894,18.8262 39.0634,18.4812 39.0634,18.4812 C39.5204,18.3012 39.1664,17.9992 39.1664,17.9992 L38.0204,17.3222 C37.4084,16.9652 35.9204,18.1712 35.9204,18.1712 C35.5314,18.5062 35.0534,18.0522 35.0534,18.0522 C33.8014,16.7792 33.7234,16.4952 33.7234,16.4952 C34.4084,15.0402 35.7524,15.1792 35.7524,15.1792 C37.2544,15.3372 38.4734,14.0202 38.4734,14.0202 C38.8014,13.8502 38.7754,14.3492 38.7754,14.3492 C38.5554,14.9562 38.0064,15.2862 38.0064,15.2862 C39.1444,16.0312 40.7214,16.3842 40.7214,16.3842 C41.7184,16.6732 42.7174,17.4932 42.7174,17.4932 C43.4044,17.9732 43.9634,17.8512 43.9634,17.8512 C44.8594,17.7762 45.5274,15.4592 45.5274,15.4592 C45.6794,15.0442 45.8574,15.2092 45.8574,15.2092 C46.1584,15.9542 45.0444,17.9352 45.0444,17.9352 C45.0074,20.8762 47.4744,21.9862 47.4744,21.9862 C48.0064,22.1472 48.5354,22.5592 48.5354,22.5592 C50.1784,23.7682 50.3194,25.5712 50.3194,25.5712 C49.9714,25.5462 49.9114,25.1542 49.9114,25.1542 C49.2054,22.8242 47.3244,22.3842 47.3244,22.3842 C46.0514,22.0012 45.5784,21.4812 45.5784,21.4812 C44.6604,20.6382 44.5464,19.2662 44.5464,19.2662 L43.8424,18.9342 C43.9244,19.2432 43.8644,20.0212 43.8644,20.0212 C43.6834,20.5082 44.0454,20.8382 44.0454,20.8382 C44.3344,21.1262 45.0234,22.0572 45.0234,22.0572 C45.3154,22.6172 46.9244,23.0332 46.9244,23.0332 C48.3244,23.4582 48.7554,24.9112 48.7554,24.9112 C49.0894,25.9292 50.1924,26.0722 50.1924,26.0722 C50.7434,26.1382 50.8504,27.5382 50.8504,27.5382 C50.8854,28.3052 51.7434,28.4162 51.7434,28.4162 C52.0954,28.4542 52.5254,28.7372 52.5254,28.7372 C52.6754,28.4422 52.7674,28.0062 52.7674,28.0062 C52.8824,27.3192 52.6524,27.1012 52.6524,27.1012 C52.2974,26.9112 52.2834,26.4822 52.2834,26.4822 C52.3484,25.9132 51.8534,25.5132 51.8524,25.5132 C51.3024,24.8592 51.3504,23.6772 51.3504,23.6772 C51.3374,23.1742 51.4084,22.6032 51.4084,22.6032 C51.3394,22.2572 50.6964,22.1192 50.6964,22.1192 C50.2644,21.9482 50.1854,21.7942 50.1854,21.7942 L49.5144,20.7992 C49.2484,20.1612 50.0074,19.7402 50.0074,19.7402 C51.1964,18.8452 51.7144,17.4262 51.7144,17.4262 Z M53.4484,25.3312 C53.4484,25.3312 53.7144,25.9522 53.9104,26.1722 C53.9104,26.1722 54.2594,26.5332 53.7794,26.6942 C53.7794,26.6942 53.2424,26.9172 52.9634,26.3752 C52.9634,26.3752 52.7014,25.6582 52.6874,25.3022 C52.6874,25.3022 52.6194,24.8702 53.0314,24.9712 C53.2144,25.0132 53.3734,25.1632 53.4484,25.3312 Z M53.6504,27.3042 C53.7854,27.2422 53.9244,27.1932 54.0744,27.1832 C54.7834,27.2302 54.3274,28.1372 54.3274,28.1372 C54.1854,28.5172 54.2204,28.7782 54.2204,28.7782 C54.2414,29.0522 54.1504,29.1892 54.1504,29.1892 C53.8574,29.5182 53.1554,29.0052 53.1554,29.0052 C53.3264,28.6952 53.4414,27.5722 53.4414,27.5722 C53.4664,27.3392 53.6504,27.3042 53.6504,27.3042 Z M27.4494,12.1752 C27.4494,12.1752 27.0024,11.9442 26.9134,11.8572 C26.9134,11.8572 26.4284,11.5172 26.8664,10.9072 C26.8664,10.9072 27.1244,10.5702 27.5664,11.2472 C27.5664,11.2472 27.8114,11.5882 27.7004,12.0472 C27.6444,12.2042 27.5874,12.2372 27.4494,12.1752 Z M27.0124,8.2842 C27.0124,8.2842 26.4754,7.9062 27.2074,6.8192 C27.2074,6.8192 27.3214,6.6242 27.5714,6.5132 C27.5714,6.5132 28.7004,6.0072 28.9614,5.8112 C28.9614,5.8112 29.4464,5.5812 29.5224,6.2302 C29.5224,6.2302 29.4974,6.3992 29.4904,6.5332 C29.4904,6.5332 29.5044,7.4802 29.5124,7.6942 C29.5124,7.6942 29.5274,7.8612 29.4674,7.9762 C29.4674,7.9762 29.1004,7.8932 29.0804,7.0962 C29.0804,7.0962 29.0644,6.8132 28.9644,6.7762 C28.9644,6.7762 28.9064,6.7582 28.7764,6.8462 C28.7764,6.8462 28.0644,7.1292 27.9024,7.1642 C27.4644,7.2582 27.1534,7.9662 27.0124,8.2842 Z M37.0204,4.4372 C37.0204,4.4372 36.0914,4.8462 35.3004,6.2752 C35.3004,6.2752 35.5114,4.4072 36.7914,3.7152 C36.7914,3.7152 37.1784,3.4462 37.2344,3.8922 C37.2504,4.1112 37.2034,4.3082 37.0204,4.4372 Z" id="Fill-1" fill="#1E3264"></path>
                            <g id="Group-5" transform="translate(0.000000, 20.754800)">
                                <mask id="mask-2" fill="white">
                                    <use xlink:href="#path-1"></use>
                                </mask>
                                <g id="Clip-4"></g>
                                <path d="M2.7598,5.9107 L3.7678,5.9107 C4.0308,5.9107 4.4688,5.9107 4.8338,5.7497 C5.1978,5.5897 5.4898,5.2537 5.4898,4.6117 C5.4898,3.9687 5.1838,3.6617 4.8038,3.5017 C4.4248,3.3407 3.9718,3.3407 3.6648,3.3407 L2.7598,3.3407 L2.7598,5.9107 Z M3.5338,0.9167 C5.5338,0.9167 6.2788,1.2237 6.8638,1.7047 C7.7098,2.4067 8.1338,3.4717 8.1338,4.5677 C8.1338,5.6627 7.6808,6.8167 6.9948,7.4007 C6.2498,8.0287 5.5198,8.3347 3.8408,8.3347 L2.7598,8.3347 L2.7598,11.7227 L-0.0002,11.7227 L-0.0002,0.9167 L3.5338,0.9167 Z" id="Fill-3" fill="#1E3264" mask="url(#mask-2)"></path>
                            </g>
                            <path d="M10.9351,28.4326 C10.9351,29.6006 11.8261,30.4626 12.8771,30.4626 C13.9291,30.4626 14.8191,29.6006 14.8191,28.4176 C14.8191,27.2356 13.9291,26.3736 12.8771,26.3736 C11.8261,26.3736 10.9351,27.2356 10.9351,28.4176 L10.9351,28.4326 Z M8.5111,28.4036 C8.5111,26.4326 9.9281,24.1106 12.8771,24.1106 C15.8271,24.1106 17.2441,26.4326 17.2441,28.4176 C17.2441,30.4036 15.8271,32.7256 12.8771,32.7256 C9.9281,32.7256 8.5111,30.4036 8.5111,28.4176 L8.5111,28.4036 Z" id="Fill-6" fill="#1E3264"></path>
                            <polygon id="Fill-8" fill="#1E3264" points="17.4019 24.373 19.9139 24.373 21.1549 29.411 22.4839 24.373 24.5279 24.373 25.9009 29.411 27.1129 24.373 29.6099 24.373 27.1269 32.478 24.8789 32.478 23.4909 27.235 22.1329 32.478 19.8839 32.478"></polygon>
                            <path d="M35.9307,27.4248 C35.8727,27.0458 35.3757,26.1398 34.1197,26.1398 C32.8647,26.1398 32.3677,27.0458 32.3087,27.4248 L35.9307,27.4248 Z M32.2807,29.2648 C32.3827,30.1268 33.2007,30.6958 34.1497,30.6958 C34.9237,30.6958 35.3317,30.3608 35.6237,29.9368 L38.1067,29.9368 C37.7127,30.8418 37.1427,31.5428 36.4567,32.0098 C35.7847,32.4918 34.9817,32.7398 34.1497,32.7398 C31.8277,32.7398 29.8557,30.8568 29.8557,28.4468 C29.8557,26.1838 31.6377,24.0958 34.1057,24.0958 C35.3467,24.0958 36.4127,24.5778 37.1717,25.3808 C38.1947,26.4758 38.5007,27.7748 38.3107,29.2648 L32.2807,29.2648 Z" id="Fill-10" fill="#1E3264"></path>
                            <path d="M39.7109,24.373 L41.9889,24.373 L41.9889,25.278 C42.2229,24.84 42.6469,24.096 44.0479,24.096 L44.0479,26.534 L43.9599,26.534 C42.7189,26.534 42.1349,26.987 42.1349,28.126 L42.1349,32.478 L39.7109,32.478 L39.7109,24.373 Z" id="Fill-12" fill="#1E3264"></path>
                            <path d="M61.4214,30.0537 L62.7214,30.0537 C62.8964,30.0537 63.2464,30.0537 63.5384,29.9217 C63.8454,29.7907 64.0934,29.5277 64.0934,29.0167 C64.0934,28.5497 63.8594,28.3157 63.5674,28.1987 C63.2904,28.0817 62.9394,28.0817 62.7214,28.0817 L61.4214,28.0817 L61.4214,30.0537 Z M61.4214,25.7747 L62.4004,25.7747 C62.5894,25.7747 62.8814,25.7747 63.1294,25.6727 C63.3774,25.5557 63.5674,25.3367 63.5674,24.9137 C63.5674,24.5047 63.3774,24.2997 63.1444,24.1977 C62.9104,24.0957 62.6184,24.0957 62.4004,24.0957 L61.4214,24.0957 L61.4214,25.7747 Z M58.6614,21.6717 L62.6334,21.6717 C63.7434,21.6717 64.6334,21.9197 65.2474,22.4017 C65.8754,22.8687 66.2114,23.5847 66.2114,24.5047 C66.2114,25.3367 65.8314,26.1837 64.9554,26.6797 C66.6924,27.2937 66.7364,28.7397 66.7364,29.1917 C66.7364,30.0537 66.4014,31.0027 65.7434,31.5427 C64.7514,32.3757 64.0354,32.4777 62.2104,32.4777 L58.6614,32.4777 L58.6614,21.6717 Z" id="Fill-14" fill="#1E3264"></path>
                            <path d="M75.5107,32.4775 L73.2477,32.4775 L73.2477,31.6165 C72.9697,32.0105 72.4587,32.7545 70.9987,32.7545 C68.2537,32.7545 67.9757,30.5355 67.9757,29.4405 L67.9757,24.3725 L70.3997,24.3725 L70.3997,28.7975 C70.3997,29.6885 70.5897,30.4765 71.6847,30.4765 C72.8967,30.4765 73.0867,29.6155 73.0867,28.7835 L73.0867,24.3725 L75.5107,24.3725 L75.5107,32.4775 Z" id="Fill-16" fill="#1E3264"></path>
                            <mask id="mask-4" fill="white">
                                <use xlink:href="#path-3"></use>
                            </mask>
                            <g id="Clip-19"></g>
                            <polygon id="Fill-18" fill="#1E3264" mask="url(#mask-4)" points="77.261 32.4778 79.685 32.4778 79.685 21.6718 77.261 21.6718"></polygon>
                            <polygon id="Fill-20" fill="#1E3264" mask="url(#mask-4)" points="81.436 32.4778 83.86 32.4778 83.86 21.6718 81.436 21.6718"></polygon>
                        </g>
                    </g>
                </g>
            </g>
        </g>
    </g>
</svg>